<svg xmlns="http://www.w3.org/2000/svg" xmlns:xlink="http://www.w3.org/1999/xlink" viewBox="0 0 3548.26 3537.27"><defs><style>.cls-1{fill:none;}.cls-2{fill:#642407;}.cls-3{fill:#fff;}.cls-4{fill:#f95b12;}.cls-5{fill:#fa7c41;}.cls-6{fill:url(#linear-gradient);}.cls-7{clip-path:url(#clip-path);}.cls-8{fill:#f2f2f7;}.cls-9{fill:#f3f3f8;}.cls-10{fill:#f4f4f9;}.cls-11{fill:#f5f5f9;}.cls-12{fill:#f6f6fa;}.cls-13{fill:#f7f7fa;}.cls-14{fill:#f8f8fb;}.cls-15{fill:#f9f9fb;}.cls-16{fill:#fafafc;}.cls-17{fill:#fbfbfd;}.cls-18{fill:#fcfcfd;}.cls-19{fill:#fdfdfe;}.cls-20{fill:#fefefe;}.cls-21{fill:#feded0;}.cls-22{fill:#f9dbe7;}.cls-23{fill:#95370b;}.cls-24{clip-path:url(#clip-path-2);}.cls-25{clip-path:url(#clip-path-3);}.cls-26{clip-path:url(#clip-path-4);}.cls-27{clip-path:url(#clip-path-5);}.cls-28{clip-path:url(#clip-path-6);}.cls-29{fill:url(#linear-gradient-3);}.cls-30{fill:url(#linear-gradient-4);}.cls-31{fill:url(#linear-gradient-5);}.cls-32{fill:url(#linear-gradient-6);}.cls-33{fill:url(#linear-gradient-7);}.cls-34{fill:url(#linear-gradient-8);}.cls-35{fill:url(#linear-gradient-9);}.cls-36{fill:url(#linear-gradient-10);}.cls-37{fill:url(#linear-gradient-11);}.cls-38{fill:url(#linear-gradient-12);}.cls-39{fill:url(#linear-gradient-13);}.cls-40{fill:url(#linear-gradient-14);}.cls-41{fill:url(#linear-gradient-15);}.cls-42{fill:url(#linear-gradient-16);}.cls-43{fill:url(#linear-gradient-17);}.cls-44{fill:url(#linear-gradient-18);}.cls-45{fill:url(#linear-gradient-19);}.cls-46{fill:url(#linear-gradient-20);}.cls-47{fill:url(#linear-gradient-21);}.cls-48{fill:url(#linear-gradient-22);}.cls-49{fill:url(#linear-gradient-23);}.cls-50{fill:url(#linear-gradient-24);}.cls-51{fill:url(#linear-gradient-25);}.cls-52{fill:url(#linear-gradient-26);}.cls-53{fill:url(#linear-gradient-27);}.cls-54{fill:url(#linear-gradient-28);}.cls-55{fill:url(#linear-gradient-29);}.cls-56{fill:url(#linear-gradient-30);}.cls-57{fill:url(#linear-gradient-31);}.cls-58{fill:url(#linear-gradient-32);}.cls-59{fill:url(#linear-gradient-33);}.cls-60{fill:url(#linear-gradient-34);}.cls-61{fill:url(#linear-gradient-35);}.cls-62{fill:url(#linear-gradient-36);}.cls-63{fill:url(#linear-gradient-37);}.cls-64{fill:url(#linear-gradient-38);}.cls-65{fill:url(#linear-gradient-39);}.cls-66{fill:url(#linear-gradient-40);}.cls-67{fill:url(#linear-gradient-41);}.cls-68{fill:url(#linear-gradient-42);}.cls-69{fill:url(#linear-gradient-43);}.cls-70{fill:url(#linear-gradient-44);}.cls-71{fill:url(#linear-gradient-45);}.cls-72{fill:url(#linear-gradient-46);}.cls-73{fill:url(#linear-gradient-47);}.cls-74{fill:url(#linear-gradient-48);}.cls-75{fill:url(#linear-gradient-49);}.cls-76{fill:url(#linear-gradient-50);}.cls-77{fill:url(#linear-gradient-51);}.cls-78{fill:url(#linear-gradient-52);}.cls-79{fill:url(#linear-gradient-53);}.cls-80{fill:url(#linear-gradient-54);}.cls-81{fill:url(#linear-gradient-55);}.cls-82{fill:url(#linear-gradient-56);}.cls-83{fill:url(#linear-gradient-57);}.cls-84{fill:url(#linear-gradient-58);}.cls-85{fill:url(#linear-gradient-59);}.cls-86{fill:url(#linear-gradient-60);}.cls-87{fill:url(#linear-gradient-61);}.cls-88{fill:url(#linear-gradient-62);}.cls-89{fill:url(#linear-gradient-63);}.cls-90{fill:url(#linear-gradient-64);}.cls-91{fill:url(#linear-gradient-65);}.cls-92{fill:url(#linear-gradient-66);}.cls-93{fill:url(#linear-gradient-67);}.cls-94{fill:#eb5c20;}.cls-95{fill:#eb5c21;}.cls-96{opacity:0.27;}.cls-97{fill:#fcc5b6;}.cls-98{fill:#fcb19c;}.cls-99{fill:#1a1a1a;}.cls-100{opacity:0.2;}</style><linearGradient id="linear-gradient" x1="1433.22" y1="2500.1" x2="2021.21" y2="2500.1" gradientUnits="userSpaceOnUse"><stop offset="0" stop-color="#f95b12"/><stop offset="1"/></linearGradient><clipPath id="clip-path" transform="translate(18.45 3.94)"><path class="cls-1" d="M164.89,1970.58C327,1675.53,604.05,1419.65,621,1083.4c8-159.48-45.71-321.45-10.19-477.14,86-376.88,468.79-600.5,835.9-606.2,258-4,472.81,177.93,600,224,251.25,91,507.13,57.24,660,312,148.65,247.74,71.69,539.1,135.63,820.85,66.88,294.74,368.21,471.69,515.44,735.65,111.1,199.2,172.07,448.38,164.93,673.5-6.09,191.83-46.88,482.9-192.89,625-122.14,118.9-303.66,128.81-464.64,131.68q-889.44,15.87-1777.8-50.7-221.76-16.64-443.11-38.38-107-10.53-213.83-22.24c-62.08-6.8-164.88,1.13-220.85-25.46-49.4-23.47-32.3-50.62-50.36-102.14-20-57-53.4-110.43-74.24-167.78A1419.15,1419.15,0,0,1,5.73,2758C-18.45,2487.59,33.81,2209.17,164.89,1970.58Z"/></clipPath><clipPath id="clip-path-2" transform="translate(18.45 3.94)"><path class="cls-2" d="M2365.66,3344.9H1078.49a112.3,112.3,0,0,1-112.17-112.16V547.31a112.3,112.3,0,0,1,112.17-112.17H2365.66a112.3,112.3,0,0,1,112.17,112.17V3232.74A112.3,112.3,0,0,1,2365.66,3344.9ZM1078.49,470a77.4,77.4,0,0,0-77.32,77.32V3232.74a77.41,77.41,0,0,0,77.32,77.32H2365.66a77.41,77.41,0,0,0,77.32-77.32V547.31A77.4,77.4,0,0,0,2365.66,470Z"/></clipPath><clipPath id="clip-path-3" transform="translate(18.45 3.94)"><circle class="cls-3" cx="1732.81" cy="1122.79" r="458.8"/></clipPath><clipPath id="clip-path-4" transform="translate(18.45 3.94)"><ellipse class="cls-4" cx="1732.81" cy="1691.53" rx="446.11" ry="473.6"/></clipPath><clipPath id="clip-path-5" transform="translate(18.45 3.94)"><circle class="cls-5" cx="1727.52" cy="1049.85" r="136.37" transform="translate(-236.38 1529.04) rotate(-45)"/></clipPath><clipPath id="clip-path-6" transform="translate(18.45 3.94)"><rect class="cls-6" x="1433.22" y="2399.92" width="587.99" height="200.35" rx="100.18"/></clipPath><linearGradient id="linear-gradient-3" x1="2036.17" y1="2458.32" x2="2039.66" y2="2458.32" xlink:href="#linear-gradient"/><linearGradient id="linear-gradient-4" x1="2027.08" y1="2504.04" x2="2039.66" y2="2504.04" xlink:href="#linear-gradient"/><linearGradient id="linear-gradient-5" x1="2017.99" y1="2504.04" x2="2033.5" y2="2504.04" xlink:href="#linear-gradient"/><linearGradient id="linear-gradient-6" x1="2008.91" y1="2504.04" x2="2024.42" y2="2504.04" xlink:href="#linear-gradient"/><linearGradient id="linear-gradient-7" x1="1999.82" y1="2504.04" x2="2015.33" y2="2504.04" xlink:href="#linear-gradient"/><linearGradient id="linear-gradient-8" x1="1990.73" y1="2504.04" x2="2006.24" y2="2504.04" xlink:href="#linear-gradient"/><linearGradient id="linear-gradient-9" x1="1981.64" y1="2504.04" x2="1997.15" y2="2504.04" xlink:href="#linear-gradient"/><linearGradient id="linear-gradient-10" x1="1972.55" y1="2504.04" x2="1988.06" y2="2504.04" xlink:href="#linear-gradient"/><linearGradient id="linear-gradient-11" x1="1963.47" y1="2504.04" x2="1978.98" y2="2504.04" xlink:href="#linear-gradient"/><linearGradient id="linear-gradient-12" x1="1954.38" y1="2504.04" x2="1969.89" y2="2504.04" xlink:href="#linear-gradient"/><linearGradient id="linear-gradient-13" x1="1945.29" y1="2504.04" x2="1960.8" y2="2504.04" xlink:href="#linear-gradient"/><linearGradient id="linear-gradient-14" x1="1936.2" y1="2504.04" x2="1951.71" y2="2504.04" xlink:href="#linear-gradient"/><linearGradient id="linear-gradient-15" x1="1927.11" y1="2504.04" x2="1942.62" y2="2504.04" xlink:href="#linear-gradient"/><linearGradient id="linear-gradient-16" x1="1918.03" y1="2504.04" x2="1933.54" y2="2504.04" xlink:href="#linear-gradient"/><linearGradient id="linear-gradient-17" x1="1908.94" y1="2504.04" x2="1924.45" y2="2504.04" xlink:href="#linear-gradient"/><linearGradient id="linear-gradient-18" x1="1899.85" y1="2504.04" x2="1915.36" y2="2504.04" xlink:href="#linear-gradient"/><linearGradient id="linear-gradient-19" x1="1890.76" y1="2504.04" x2="1906.27" y2="2504.04" xlink:href="#linear-gradient"/><linearGradient id="linear-gradient-20" x1="1881.67" y1="2504.04" x2="1897.18" y2="2504.04" xlink:href="#linear-gradient"/><linearGradient id="linear-gradient-21" x1="1872.59" y1="2504.04" x2="1888.1" y2="2504.04" xlink:href="#linear-gradient"/><linearGradient id="linear-gradient-22" x1="1863.5" y1="2504.04" x2="1879.01" y2="2504.04" xlink:href="#linear-gradient"/><linearGradient id="linear-gradient-23" x1="1854.41" y1="2504.04" x2="1869.92" y2="2504.04" xlink:href="#linear-gradient"/><linearGradient id="linear-gradient-24" x1="1845.32" y1="2504.04" x2="1860.83" y2="2504.04" xlink:href="#linear-gradient"/><linearGradient id="linear-gradient-25" x1="1836.23" y1="2504.04" x2="1851.74" y2="2504.04" xlink:href="#linear-gradient"/><linearGradient id="linear-gradient-26" x1="1827.15" y1="2504.04" x2="1842.66" y2="2504.04" xlink:href="#linear-gradient"/><linearGradient id="linear-gradient-27" x1="1818.06" y1="2504.04" x2="1833.57" y2="2504.04" xlink:href="#linear-gradient"/><linearGradient id="linear-gradient-28" x1="1808.97" y1="2504.04" x2="1824.48" y2="2504.04" xlink:href="#linear-gradient"/><linearGradient id="linear-gradient-29" x1="1799.88" y1="2504.04" x2="1815.39" y2="2504.04" xlink:href="#linear-gradient"/><linearGradient id="linear-gradient-30" x1="1790.79" y1="2504.04" x2="1806.3" y2="2504.04" xlink:href="#linear-gradient"/><linearGradient id="linear-gradient-31" x1="1781.71" y1="2504.04" x2="1797.22" y2="2504.04" xlink:href="#linear-gradient"/><linearGradient id="linear-gradient-32" x1="1772.62" y1="2504.04" x2="1788.13" y2="2504.04" xlink:href="#linear-gradient"/><linearGradient id="linear-gradient-33" x1="1763.53" y1="2504.04" x2="1779.04" y2="2504.04" xlink:href="#linear-gradient"/><linearGradient id="linear-gradient-34" x1="1754.44" y1="2504.04" x2="1769.95" y2="2504.04" xlink:href="#linear-gradient"/><linearGradient id="linear-gradient-35" x1="1745.35" y1="2504.04" x2="1760.86" y2="2504.04" xlink:href="#linear-gradient"/><linearGradient id="linear-gradient-36" x1="1736.27" y1="2504.04" x2="1751.78" y2="2504.04" xlink:href="#linear-gradient"/><linearGradient id="linear-gradient-37" x1="1727.18" y1="2504.04" x2="1742.69" y2="2504.04" xlink:href="#linear-gradient"/><linearGradient id="linear-gradient-38" x1="1718.09" y1="2504.04" x2="1733.6" y2="2504.04" xlink:href="#linear-gradient"/><linearGradient id="linear-gradient-39" x1="1709" y1="2504.04" x2="1724.51" y2="2504.04" xlink:href="#linear-gradient"/><linearGradient id="linear-gradient-40" x1="1699.91" y1="2504.04" x2="1715.42" y2="2504.04" xlink:href="#linear-gradient"/><linearGradient id="linear-gradient-41" x1="1690.83" y1="2504.04" x2="1706.34" y2="2504.04" xlink:href="#linear-gradient"/><linearGradient id="linear-gradient-42" x1="1681.74" y1="2504.04" x2="1697.25" y2="2504.04" xlink:href="#linear-gradient"/><linearGradient id="linear-gradient-43" x1="1672.65" y1="2504.04" x2="1688.16" y2="2504.04" xlink:href="#linear-gradient"/><linearGradient id="linear-gradient-44" x1="1663.56" y1="2504.04" x2="1679.07" y2="2504.04" xlink:href="#linear-gradient"/><linearGradient id="linear-gradient-45" x1="1654.47" y1="2504.04" x2="1669.98" y2="2504.04" xlink:href="#linear-gradient"/><linearGradient id="linear-gradient-46" x1="1645.39" y1="2504.04" x2="1660.89" y2="2504.04" xlink:href="#linear-gradient"/><linearGradient id="linear-gradient-47" x1="1636.3" y1="2504.04" x2="1651.81" y2="2504.04" xlink:href="#linear-gradient"/><linearGradient id="linear-gradient-48" x1="1627.21" y1="2504.04" x2="1642.72" y2="2504.04" xlink:href="#linear-gradient"/><linearGradient id="linear-gradient-49" x1="1618.12" y1="2504.04" x2="1633.63" y2="2504.04" xlink:href="#linear-gradient"/><linearGradient id="linear-gradient-50" x1="1609.03" y1="2504.04" x2="1624.54" y2="2504.04" xlink:href="#linear-gradient"/><linearGradient id="linear-gradient-51" x1="1599.95" y1="2504.04" x2="1615.45" y2="2504.04" xlink:href="#linear-gradient"/><linearGradient id="linear-gradient-52" x1="1590.86" y1="2504.04" x2="1606.37" y2="2504.04" xlink:href="#linear-gradient"/><linearGradient id="linear-gradient-53" x1="1581.77" y1="2504.04" x2="1597.28" y2="2504.04" xlink:href="#linear-gradient"/><linearGradient id="linear-gradient-54" x1="1572.68" y1="2504.04" x2="1588.19" y2="2504.04" xlink:href="#linear-gradient"/><linearGradient id="linear-gradient-55" x1="1563.59" y1="2504.04" x2="1579.1" y2="2504.04" xlink:href="#linear-gradient"/><linearGradient id="linear-gradient-56" x1="1554.5" y1="2504.04" x2="1570.01" y2="2504.04" xlink:href="#linear-gradient"/><linearGradient id="linear-gradient-57" x1="1545.42" y1="2504.04" x2="1560.93" y2="2504.04" xlink:href="#linear-gradient"/><linearGradient id="linear-gradient-58" x1="1536.33" y1="2504.04" x2="1551.84" y2="2504.04" xlink:href="#linear-gradient"/><linearGradient id="linear-gradient-59" x1="1527.24" y1="2504.04" x2="1542.75" y2="2504.04" xlink:href="#linear-gradient"/><linearGradient id="linear-gradient-60" x1="1518.15" y1="2504.04" x2="1533.66" y2="2504.04" xlink:href="#linear-gradient"/><linearGradient id="linear-gradient-61" x1="1509.06" y1="2504.04" x2="1524.57" y2="2504.04" xlink:href="#linear-gradient"/><linearGradient id="linear-gradient-62" x1="1499.98" y1="2504.04" x2="1515.49" y2="2504.04" xlink:href="#linear-gradient"/><linearGradient id="linear-gradient-63" x1="1490.89" y1="2504.04" x2="1506.4" y2="2504.04" xlink:href="#linear-gradient"/><linearGradient id="linear-gradient-64" x1="1481.8" y1="2504.04" x2="1497.31" y2="2504.04" xlink:href="#linear-gradient"/><linearGradient id="linear-gradient-65" x1="1472.71" y1="2504.04" x2="1488.22" y2="2504.04" xlink:href="#linear-gradient"/><linearGradient id="linear-gradient-66" x1="1463.62" y1="2504.04" x2="1479.13" y2="2504.04" xlink:href="#linear-gradient"/><linearGradient id="linear-gradient-67" x1="1451.67" y1="2504.04" x2="1470.05" y2="2504.04" xlink:href="#linear-gradient"/></defs><g id="Layer_2" data-name="Layer 2"><g id="Layer_1-2" data-name="Layer 1"><g class="cls-7"><polygon class="cls-8" points="3548.26 34.52 1276.67 0 3548.26 0 3548.26 34.52"/><polygon class="cls-9" points="3548.26 269.7 30.58 216.24 33.87 0 1276.67 0 3548.26 34.52 3548.26 269.7"/><polygon class="cls-10" points="3548.26 504.88 27 451.36 30.58 216.24 3548.26 269.7 3548.26 504.88"/><polygon class="cls-11" points="3548.26 740.05 23.43 686.48 27 451.36 3548.26 504.88 3548.26 740.05"/><polygon class="cls-12" points="3548.26 975.23 19.86 921.61 23.43 686.48 3548.26 740.05 3548.26 975.23"/><polygon class="cls-13" points="3548.26 1210.41 16.29 1156.73 19.86 921.61 3548.26 975.23 3548.26 1210.41"/><polygon class="cls-14" points="3548.26 1445.58 12.71 1391.85 16.29 1156.73 3548.26 1210.41 3548.26 1445.58"/><polygon class="cls-15" points="3548.26 1680.76 9.14 1626.97 12.71 1391.85 3548.26 1445.58 3548.26 1680.76"/><polygon class="cls-16" points="3548.26 1915.94 5.57 1862.1 9.14 1626.97 3548.26 1680.76 3548.26 1915.94"/><polygon class="cls-17" points="3548.26 2151.11 1.99 2097.22 5.57 1862.1 3548.26 1915.94 3548.26 2151.11"/><polygon class="cls-18" points="3548.26 2386.29 0 2332.37 0 2228.29 1.99 2097.22 3548.26 2151.11 3548.26 2386.29"/><polygon class="cls-19" points="3548.26 2621.47 0 2567.54 0 2332.37 3548.26 2386.29 3548.26 2621.47"/><polygon class="cls-20" points="3548.26 2808.1 3547.53 2856.63 0 2802.72 0 2567.54 3548.26 2621.47 3548.26 2808.1"/><polygon class="cls-3" points="3547.53 2856.63 3543.95 3091.76 0 3037.9 0 2802.72 3547.53 2856.63"/><polygon class="cls-3" points="3543.95 3091.76 3537.18 3537.27 0 3537.27 0 3037.9 3543.95 3091.76"/></g><path class="cls-21" d="M538.51,2748.38s-33.72,30.73-98.81,105.5q-24.33-30.69-46.9-64.14L206.89,2514l261.39-17.83c324.43-22.14,601.46,121.27,783.57,405.63l184,287.23-371-13.37c-233.69-8.43-438-106.94-594-284.62Z" transform="translate(18.45 3.94)"/><path class="cls-3" d="M1311,3109.2a2.12,2.12,0,0,1-1-.25L273.8,2548.27a2.1,2.1,0,0,1,2-3.69L1312,3105.25a2.1,2.1,0,0,1-1,3.95Z" transform="translate(18.45 3.94)"/><path class="cls-22" d="M1016.87,2653.33s-25.93,37.53-91.31,112q33.66,20,69.83,37.89l298.15,147.31-17.33-261.42c-21.52-324.48-200.73-579.8-506.92-722.19L460,1823.13,523,2189c39.64,230.45,164.62,419.73,361.6,550.56Z" transform="translate(18.45 3.94)"/><path class="cls-3" d="M1252.32,2889.71a2.1,2.1,0,0,1-1.7-.86L556.24,1937.09a2.1,2.1,0,0,1,3.4-2.47L1254,2886.37a2.1,2.1,0,0,1-1.7,3.34Z" transform="translate(18.45 3.94)"/><path class="cls-23" d="M2478.85,1217.72h0a18,18,0,0,1-18-18V1016.83a18,18,0,0,1,18-18h0a18,18,0,0,1,18,18v182.92A18,18,0,0,1,2478.85,1217.72Z" transform="translate(18.45 3.94)"/><path class="cls-23" d="M2478.85,1621.82h0a18,18,0,0,1-18-18V1298.49a18,18,0,0,1,18-18h0a18,18,0,0,1,18,18v305.37A18,18,0,0,1,2478.85,1621.82Z" transform="translate(18.45 3.94)"/><rect class="cls-21" x="1002.2" y="456.5" width="1476.66" height="2874.91" rx="94.74"/><path class="cls-2" d="M2365.66,3344.9H1078.49a112.3,112.3,0,0,1-112.17-112.16V547.31a112.3,112.3,0,0,1,112.17-112.17H2365.66a112.3,112.3,0,0,1,112.17,112.17V3232.74A112.3,112.3,0,0,1,2365.66,3344.9ZM1078.49,470a77.4,77.4,0,0,0-77.32,77.32V3232.74a77.41,77.41,0,0,0,77.32,77.32H2365.66a77.41,77.41,0,0,0,77.32-77.32V547.31A77.4,77.4,0,0,0,2365.66,470Z" transform="translate(18.45 3.94)"/><g class="cls-24"><polygon class="cls-2" points="1019.62 3312.17 1070.34 3313.99 1019.62 3313.99 1019.62 3312.17"/><polygon class="cls-2" points="1019.62 3269.64 2254.51 3313.99 1070.34 3313.99 1019.62 3312.17 1019.62 3269.64"/><polygon class="cls-2" points="1019.62 3227.11 2461.44 3278.89 2461.44 3313.99 2254.51 3313.99 1019.62 3269.64 1019.62 3227.11"/><polygon class="cls-2" points="1019.62 3184.57 2461.44 3236.36 2461.44 3278.89 1019.62 3227.11 1019.62 3184.57"/><polygon class="cls-2" points="1019.62 3142.04 2461.44 3193.83 2461.44 3236.36 1019.62 3184.57 1019.62 3142.04"/><polygon class="cls-2" points="1019.62 3099.51 2461.44 3151.3 2461.44 3193.83 1019.62 3142.04 1019.62 3099.51"/><polygon class="cls-2" points="1019.62 3056.98 2461.44 3108.76 2461.44 3151.3 1019.62 3099.51 1019.62 3056.98"/><polygon class="cls-2" points="1019.62 3014.45 2461.44 3066.23 2461.44 3108.76 1019.62 3056.98 1019.62 3014.45"/><polygon class="cls-2" points="1019.62 2971.91 2461.44 3023.7 2461.44 3066.23 1019.62 3014.45 1019.62 2971.91"/><polygon class="cls-2" points="1019.62 2929.38 2461.44 2981.17 2461.44 3023.7 1019.62 2971.91 1019.62 2929.38"/><polygon class="cls-2" points="1019.62 2886.85 2461.44 2938.64 2461.44 2981.17 1019.62 2929.38 1019.62 2886.85"/><polygon class="cls-2" points="1019.62 2844.32 2461.44 2896.1 2461.44 2938.64 1019.62 2886.85 1019.62 2844.32"/><polygon class="cls-2" points="1019.62 2801.79 2461.44 2853.57 2461.44 2896.1 1019.62 2844.32 1019.62 2801.79"/><polygon class="cls-2" points="1019.62 2759.26 2461.44 2811.04 2461.44 2853.57 1019.62 2801.79 1019.62 2759.26"/><polygon class="cls-2" points="1019.62 2716.72 2461.44 2768.51 2461.44 2811.04 1019.62 2759.26 1019.62 2716.72"/><polygon class="cls-2" points="1019.62 2674.19 2461.44 2725.98 2461.44 2768.51 1019.62 2716.72 1019.62 2674.19"/><polygon class="cls-2" points="1019.62 2631.66 2461.44 2683.45 2461.44 2725.98 1019.62 2674.19 1019.62 2631.66"/><polygon class="cls-2" points="1019.62 2589.13 2461.44 2640.91 2461.44 2683.45 1019.62 2631.66 1019.62 2589.13"/><polygon class="cls-2" points="1019.62 2546.6 2461.44 2598.38 2461.44 2640.91 1019.62 2589.13 1019.62 2546.6"/><polygon class="cls-2" points="1019.62 2504.06 2461.44 2555.85 2461.44 2598.38 1019.62 2546.6 1019.62 2504.06"/><polygon class="cls-2" points="1019.62 2461.53 2461.44 2513.32 2461.44 2555.85 1019.62 2504.06 1019.62 2461.53"/><polygon class="cls-2" points="1019.62 2419 2461.44 2470.78 2461.44 2513.32 1019.62 2461.53 1019.62 2419"/><polygon class="cls-2" points="1019.62 2376.47 2461.44 2428.25 2461.44 2470.78 1019.62 2419 1019.62 2376.47"/><polygon class="cls-2" points="1019.62 2333.94 2461.44 2385.72 2461.44 2428.25 1019.62 2376.47 1019.62 2333.94"/><polygon class="cls-2" points="1019.62 2291.4 2461.44 2343.19 2461.44 2385.72 1019.62 2333.94 1019.62 2291.4"/><polygon class="cls-2" points="1019.62 2248.87 2461.44 2300.66 2461.44 2343.19 1019.62 2291.4 1019.62 2248.87"/><polygon class="cls-2" points="1019.62 2206.34 2461.44 2258.13 2461.44 2300.66 1019.62 2248.87 1019.62 2206.34"/><polygon class="cls-2" points="1019.62 2163.81 2461.44 2215.59 2461.44 2258.13 1019.62 2206.34 1019.62 2163.81"/><polygon class="cls-2" points="1019.62 2121.28 2461.44 2173.06 2461.44 2215.59 1019.62 2163.81 1019.62 2121.28"/><polygon class="cls-2" points="1019.62 2078.74 2461.44 2130.53 2461.44 2173.06 1019.62 2121.28 1019.62 2078.74"/><polygon class="cls-2" points="1019.62 2036.21 2461.44 2088 2461.44 2130.53 1019.62 2078.74 1019.62 2036.21"/><polygon class="cls-2" points="1019.62 1993.68 2461.44 2045.47 2461.44 2088 1019.62 2036.21 1019.62 1993.68"/><polygon class="cls-2" points="1019.62 1951.15 2461.44 2002.93 2461.44 2045.47 1019.62 1993.68 1019.62 1951.15"/><polygon class="cls-2" points="1019.62 1908.62 2461.44 1960.4 2461.44 2002.93 1019.62 1951.15 1019.62 1908.62"/><polygon class="cls-2" points="1019.62 1866.09 2461.44 1917.87 2461.44 1960.4 1019.62 1908.62 1019.62 1866.09"/><polygon class="cls-2" points="1019.62 1823.55 2461.44 1875.34 2461.44 1917.87 1019.62 1866.09 1019.62 1823.55"/><polygon class="cls-2" points="1019.62 1781.02 2461.44 1832.81 2461.44 1875.34 1019.62 1823.55 1019.62 1781.02"/><polygon class="cls-2" points="1019.62 1738.49 2461.44 1790.28 2461.44 1832.81 1019.62 1781.02 1019.62 1738.49"/><polygon class="cls-2" points="1019.62 1695.96 2461.44 1747.74 2461.44 1790.28 1019.62 1738.49 1019.62 1695.96"/><polygon class="cls-2" points="1019.62 1653.43 2461.44 1705.21 2461.44 1747.74 1019.62 1695.96 1019.62 1653.43"/><polygon class="cls-2" points="1019.62 1610.89 2461.44 1662.68 2461.44 1705.21 1019.62 1653.43 1019.62 1610.89"/><polygon class="cls-2" points="1019.62 1568.36 2461.44 1620.15 2461.44 1662.68 1019.62 1610.89 1019.62 1568.36"/><polygon class="cls-2" points="1019.62 1525.83 2461.44 1577.62 2461.44 1620.15 1019.62 1568.36 1019.62 1525.83"/><polygon class="cls-2" points="1019.62 1483.3 2461.44 1535.08 2461.44 1577.62 1019.62 1525.83 1019.62 1483.3"/><polygon class="cls-2" points="1019.62 1440.77 2461.44 1492.55 2461.44 1535.08 1019.62 1483.3 1019.62 1440.77"/><polygon class="cls-2" points="1019.62 1398.23 2461.44 1450.02 2461.44 1492.55 1019.62 1440.77 1019.62 1398.23"/><polygon class="cls-2" points="1019.62 1355.7 2461.44 1407.49 2461.44 1450.02 1019.62 1398.23 1019.62 1355.7"/><polygon class="cls-2" points="1019.62 1313.17 2461.44 1364.96 2461.44 1407.49 1019.62 1355.7 1019.62 1313.17"/><polygon class="cls-2" points="1019.62 1270.64 2461.44 1322.42 2461.44 1364.96 1019.62 1313.17 1019.62 1270.64"/><polygon class="cls-2" points="1019.62 1228.11 2461.44 1279.89 2461.44 1322.42 1019.62 1270.64 1019.62 1228.11"/><polygon class="cls-2" points="1019.62 1185.58 2461.44 1237.36 2461.44 1279.89 1019.62 1228.11 1019.62 1185.58"/><polygon class="cls-2" points="1019.62 1143.04 2461.44 1194.83 2461.44 1237.36 1019.62 1185.58 1019.62 1143.04"/><polygon class="cls-2" points="1019.62 1100.51 2461.44 1152.3 2461.44 1194.83 1019.62 1143.04 1019.62 1100.51"/><polygon class="cls-2" points="1019.62 1057.98 2461.44 1109.77 2461.44 1152.3 1019.62 1100.51 1019.62 1057.98"/><polygon class="cls-2" points="1019.62 1015.45 2461.44 1067.23 2461.44 1109.77 1019.62 1057.98 1019.62 1015.45"/><polygon class="cls-2" points="1019.62 972.92 2461.44 1024.7 2461.44 1067.23 1019.62 1015.45 1019.62 972.92"/><polygon class="cls-2" points="1019.62 930.38 2461.44 982.17 2461.44 1024.7 1019.62 972.92 1019.62 930.38"/><polygon class="cls-2" points="1019.62 887.85 2461.44 939.64 2461.44 982.17 1019.62 930.38 1019.62 887.85"/><polygon class="cls-2" points="1019.62 845.32 2461.44 897.11 2461.44 939.64 1019.62 887.85 1019.62 845.32"/><polygon class="cls-2" points="1019.62 802.79 2461.44 854.58 2461.44 897.11 1019.62 845.32 1019.62 802.79"/><polygon class="cls-2" points="1019.62 760.26 2461.44 812.04 2461.44 854.58 1019.62 802.79 1019.62 760.26"/><polygon class="cls-2" points="1019.62 717.73 2461.44 769.51 2461.44 812.04 1019.62 760.26 1019.62 717.73"/><polygon class="cls-2" points="1019.62 675.19 2461.44 726.98 2461.44 769.51 1019.62 717.73 1019.62 675.19"/><polygon class="cls-2" points="1019.62 632.66 2461.44 684.45 2461.44 726.98 1019.62 675.19 1019.62 632.66"/><polygon class="cls-2" points="1019.62 590.13 2461.44 641.91 2461.44 684.45 1019.62 632.66 1019.62 590.13"/><polygon class="cls-2" points="1019.62 547.6 2461.44 599.38 2461.44 641.91 1019.62 590.13 1019.62 547.6"/><polygon class="cls-2" points="1019.62 505.07 2461.44 556.85 2461.44 599.38 1019.62 547.6 1019.62 505.07"/><polygon class="cls-2" points="1336.73 473.92 2461.44 514.32 2461.44 556.85 1019.62 505.07 1019.62 473.92 1336.73 473.92"/><polygon class="cls-2" points="2461.44 514.32 1336.73 473.92 2461.44 473.92 2461.44 514.32"/><polygon class="cls-2" points="984.78 3310.92 2040.47 3348.84 984.78 3348.84 984.78 3310.92"/><polygon class="cls-2" points="984.78 3268.39 2496.28 3322.67 2496.28 3348.84 2040.47 3348.84 984.78 3310.92 984.78 3268.39"/><polygon class="cls-2" points="984.78 3225.85 2496.28 3280.14 2496.28 3322.67 984.78 3268.39 984.78 3225.85"/><polygon class="cls-2" points="984.78 3183.32 2496.28 3237.61 2496.28 3280.14 984.78 3225.85 984.78 3183.32"/><polygon class="cls-2" points="984.78 3140.79 2496.28 3195.08 2496.28 3237.61 984.78 3183.32 984.78 3140.79"/><polygon class="cls-2" points="984.78 3098.26 2496.28 3152.55 2496.28 3195.08 984.78 3140.79 984.78 3098.26"/><polygon class="cls-2" points="984.78 3055.73 2496.28 3110.01 2496.28 3152.55 984.78 3098.26 984.78 3055.73"/><polygon class="cls-2" points="984.78 3013.19 2496.28 3067.48 2496.28 3110.01 984.78 3055.73 984.78 3013.19"/><polygon class="cls-2" points="984.78 2970.66 2496.28 3024.95 2496.28 3067.48 984.78 3013.19 984.78 2970.66"/><polygon class="cls-2" points="984.78 2928.13 2496.28 2982.42 2496.28 3024.95 984.78 2970.66 984.78 2928.13"/><polygon class="cls-2" points="984.78 2885.6 2496.28 2939.89 2496.28 2982.42 984.78 2928.13 984.78 2885.6"/><polygon class="cls-2" points="984.78 2843.07 2496.28 2897.36 2496.28 2939.89 984.78 2885.6 984.78 2843.07"/><polygon class="cls-2" points="984.78 2800.53 2496.28 2854.82 2496.28 2897.36 984.78 2843.07 984.78 2800.53"/><polygon class="cls-2" points="984.78 2758 2496.28 2812.29 2496.28 2854.82 984.78 2800.53 984.78 2758"/><polygon class="cls-2" points="984.78 2715.47 2496.28 2769.76 2496.28 2812.29 984.78 2758 984.78 2715.47"/><polygon class="cls-2" points="984.78 2672.94 2496.28 2727.23 2496.28 2769.76 984.78 2715.47 984.78 2672.94"/><polygon class="cls-2" points="984.78 2630.41 2496.28 2684.7 2496.28 2727.23 984.78 2672.94 984.78 2630.41"/><polygon class="cls-2" points="984.78 2587.88 2496.28 2642.16 2496.28 2684.7 984.78 2630.41 984.78 2587.88"/><polygon class="cls-2" points="984.78 2545.34 2496.28 2599.63 2496.28 2642.16 984.78 2587.88 984.78 2545.34"/><polygon class="cls-2" points="984.78 2502.81 2496.28 2557.1 2496.28 2599.63 984.78 2545.34 984.78 2502.81"/><polygon class="cls-2" points="984.78 2460.28 2496.28 2514.57 2496.28 2557.1 984.78 2502.81 984.78 2460.28"/><polygon class="cls-2" points="984.78 2417.75 2496.28 2472.04 2496.28 2514.57 984.78 2460.28 984.78 2417.75"/><polygon class="cls-2" points="984.78 2375.22 2496.28 2429.51 2496.28 2472.04 984.78 2417.75 984.78 2375.22"/><polygon class="cls-2" points="984.78 2332.68 2496.28 2386.97 2496.28 2429.51 984.78 2375.22 984.78 2332.68"/><polygon class="cls-2" points="984.78 2290.15 2496.28 2344.44 2496.28 2386.97 984.78 2332.68 984.78 2290.15"/><polygon class="cls-2" points="984.78 2247.62 2496.28 2301.91 2496.28 2344.44 984.78 2290.15 984.78 2247.62"/><polygon class="cls-2" points="984.78 2205.09 2496.28 2259.38 2496.28 2301.91 984.78 2247.62 984.78 2205.09"/><polygon class="cls-2" points="984.78 2162.56 2496.28 2216.85 2496.28 2259.38 984.78 2205.09 984.78 2162.56"/><polygon class="cls-2" points="984.78 2120.03 2496.28 2174.31 2496.28 2216.85 984.78 2162.56 984.78 2120.03"/><polygon class="cls-2" points="984.78 2077.49 2496.28 2131.78 2496.28 2174.31 984.78 2120.03 984.78 2077.49"/><polygon class="cls-2" points="984.78 2034.96 2496.28 2089.25 2496.28 2131.78 984.78 2077.49 984.78 2034.96"/><polygon class="cls-2" points="984.78 1992.43 2496.28 2046.72 2496.28 2089.25 984.78 2034.96 984.78 1992.43"/><polygon class="cls-2" points="984.78 1949.9 2496.28 2004.19 2496.28 2046.72 984.78 1992.43 984.78 1949.9"/><polygon class="cls-2" points="984.78 1907.37 2496.28 1961.65 2496.28 2004.19 984.78 1949.9 984.78 1907.37"/><polygon class="cls-2" points="984.78 1864.83 2496.28 1919.12 2496.28 1961.65 984.78 1907.37 984.78 1864.83"/><polygon class="cls-2" points="984.78 1822.3 2496.28 1876.59 2496.28 1919.12 984.78 1864.83 984.78 1822.3"/><polygon class="cls-2" points="984.78 1779.77 2496.28 1834.06 2496.28 1876.59 984.78 1822.3 984.78 1779.77"/><polygon class="cls-2" points="984.78 1737.24 2496.28 1791.53 2496.28 1834.06 984.78 1779.77 984.78 1737.24"/><polygon class="cls-2" points="984.78 1694.71 2496.28 1748.99 2496.28 1791.53 984.78 1737.24 984.78 1694.71"/><polygon class="cls-2" points="984.78 1652.17 2496.28 1706.46 2496.28 1748.99 984.78 1694.71 984.78 1652.17"/><polygon class="cls-2" points="984.78 1609.64 2496.28 1663.93 2496.28 1706.46 984.78 1652.17 984.78 1609.64"/><polygon class="cls-2" points="984.78 1567.11 2496.28 1621.4 2496.28 1663.93 984.78 1609.64 984.78 1567.11"/><polygon class="cls-2" points="984.78 1524.58 2496.28 1578.87 2496.28 1621.4 984.78 1567.11 984.78 1524.58"/><polygon class="cls-2" points="984.78 1482.05 2496.28 1536.34 2496.28 1578.87 984.78 1524.58 984.78 1482.05"/><polygon class="cls-2" points="984.78 1439.52 2496.28 1493.8 2496.28 1536.34 984.78 1482.05 984.78 1439.52"/><polygon class="cls-2" points="984.78 1396.98 2496.28 1451.27 2496.28 1493.8 984.78 1439.52 984.78 1396.98"/><polygon class="cls-2" points="984.78 1354.45 2496.28 1408.74 2496.28 1451.27 984.78 1396.98 984.78 1354.45"/><polygon class="cls-2" points="984.78 1311.92 2496.28 1366.21 2496.28 1408.74 984.78 1354.45 984.78 1311.92"/><polygon class="cls-2" points="984.78 1269.39 2496.28 1323.68 2496.28 1366.21 984.78 1311.92 984.78 1269.39"/><polygon class="cls-2" points="984.78 1226.86 2496.28 1281.14 2496.28 1323.68 984.78 1269.39 984.78 1226.86"/><polygon class="cls-2" points="984.78 1184.32 2496.28 1238.61 2496.28 1281.14 984.78 1226.86 984.78 1184.32"/><polygon class="cls-2" points="984.78 1141.79 2496.28 1196.08 2496.28 1238.61 984.78 1184.32 984.78 1141.79"/><polygon class="cls-2" points="984.78 1099.26 2496.28 1153.55 2496.28 1196.08 984.78 1141.79 984.78 1099.26"/><polygon class="cls-2" points="984.78 1056.73 2496.28 1111.02 2496.28 1153.55 984.78 1099.26 984.78 1056.73"/><polygon class="cls-2" points="984.78 1014.2 2496.28 1068.48 2496.28 1111.02 984.78 1056.73 984.78 1014.2"/><polygon class="cls-2" points="984.78 971.66 2496.28 1025.95 2496.28 1068.48 984.78 1014.2 984.78 971.66"/><polygon class="cls-2" points="984.78 929.13 2496.28 983.42 2496.28 1025.95 984.78 971.66 984.78 929.13"/><polygon class="cls-2" points="984.78 886.6 2496.28 940.89 2496.28 983.42 984.78 929.13 984.78 886.6"/><polygon class="cls-2" points="984.78 844.07 2496.28 898.36 2496.28 940.89 984.78 886.6 984.78 844.07"/><polygon class="cls-2" points="984.78 801.54 2496.28 855.83 2496.28 898.36 984.78 844.07 984.78 801.54"/><polygon class="cls-2" points="984.78 759.01 2496.28 813.29 2496.28 855.83 984.78 801.54 984.78 759.01"/><polygon class="cls-2" points="984.78 716.47 2496.28 770.76 2496.28 813.29 984.78 759.01 984.78 716.47"/><polygon class="cls-2" points="984.78 673.94 2496.28 728.23 2496.28 770.76 984.78 716.47 984.78 673.94"/><polygon class="cls-2" points="984.78 631.41 2496.28 685.7 2496.28 728.23 984.78 673.94 984.78 631.41"/><polygon class="cls-2" points="984.78 588.88 2496.28 643.17 2496.28 685.7 984.78 631.41 984.78 588.88"/><polygon class="cls-2" points="984.78 546.35 2496.28 600.63 2496.28 643.17 984.78 588.88 984.78 546.35"/><polygon class="cls-2" points="984.78 503.81 2496.28 558.1 2496.28 600.63 984.78 546.35 984.78 503.81"/><polygon class="cls-2" points="984.78 461.28 2496.28 515.57 2496.28 558.1 984.78 503.81 984.78 461.28"/><polygon class="cls-2" points="1550.78 439.08 2496.28 473.04 2496.28 515.57 984.78 461.28 984.78 439.08 1550.78 439.08"/><polygon class="cls-2" points="2496.28 473.04 1550.78 439.08 2496.28 439.08 2496.28 473.04"/></g><path class="cls-2" d="M2365.66,3346H1078.49a113.36,113.36,0,0,1-113.22-113.23V547.31a113.35,113.35,0,0,1,113.22-113.22H2365.66a113.35,113.35,0,0,1,113.22,113.22V3232.73A113.36,113.36,0,0,1,2365.66,3346ZM1078.49,436.2A111.23,111.23,0,0,0,967.38,547.31V3232.73a111.23,111.23,0,0,0,111.11,111.11H2365.66a111.23,111.23,0,0,0,111.11-111.11V547.31A111.23,111.23,0,0,0,2365.66,436.2ZM2365.66,3311.11H1078.49a78.47,78.47,0,0,1-78.38-78.38V547.31a78.47,78.47,0,0,1,78.38-78.38H2365.66A78.47,78.47,0,0,1,2444,547.31V3232.73A78.47,78.47,0,0,1,2365.66,3311.11ZM1078.49,471.05a76.35,76.35,0,0,0-76.27,76.26V3232.73a76.36,76.36,0,0,0,76.27,76.27H2365.66a76.35,76.35,0,0,0,76.26-76.27V547.31a76.35,76.35,0,0,0-76.26-76.26Z" transform="translate(18.45 3.94)"/><circle class="cls-3" cx="1751.26" cy="1126.73" r="458.8"/><g class="cls-25"><ellipse class="cls-4" cx="1751.26" cy="1695.47" rx="446.11" ry="473.6"/><g class="cls-26"><polygon class="cls-4" points="1355.89 1221.87 1305.15 1222.74 1305.15 1221.87 1355.89 1221.87"/><polygon class="cls-4" points="1900.88 1221.87 1305.15 1232.1 1305.15 1222.74 1355.89 1221.87 1900.88 1221.87"/><polygon class="cls-4" points="2197.37 1226.13 1305.15 1241.45 1305.15 1232.1 1900.88 1221.87 2197.37 1221.87 2197.37 1226.13"/><polygon class="cls-4" points="2197.37 1235.49 1305.15 1250.81 1305.15 1241.45 2197.37 1226.13 2197.37 1235.49"/><polygon class="cls-4" points="2197.37 1244.85 1305.15 1260.16 1305.15 1250.81 2197.37 1235.49 2197.37 1244.85"/><polygon class="cls-4" points="2197.37 1254.2 1305.15 1269.52 1305.15 1260.16 2197.37 1244.85 2197.37 1254.2"/><polygon class="cls-4" points="2197.37 1263.56 1305.15 1278.88 1305.15 1269.52 2197.37 1254.2 2197.37 1263.56"/><polygon class="cls-4" points="2197.37 1272.91 1305.15 1288.23 1305.15 1278.88 2197.37 1263.56 2197.37 1272.91"/><polygon class="cls-4" points="2197.37 1282.27 1305.15 1297.59 1305.15 1288.23 2197.37 1272.91 2197.37 1282.27"/><polygon class="cls-4" points="2197.37 1291.63 1305.15 1306.94 1305.15 1297.59 2197.37 1282.27 2197.37 1291.63"/><polygon class="cls-4" points="2197.37 1300.98 1305.15 1316.3 1305.15 1306.94 2197.37 1291.63 2197.37 1300.98"/><polygon class="cls-4" points="2197.37 1310.34 1305.15 1325.66 1305.15 1316.3 2197.37 1300.98 2197.37 1310.34"/><polygon class="cls-4" points="2197.37 1319.69 1305.15 1335.01 1305.15 1325.66 2197.37 1310.34 2197.37 1319.69"/><polygon class="cls-4" points="2197.37 1329.05 1305.15 1344.37 1305.15 1335.01 2197.37 1319.69 2197.37 1329.05"/><polygon class="cls-4" points="2197.37 1338.41 1305.15 1353.72 1305.15 1344.37 2197.37 1329.05 2197.37 1338.41"/><polygon class="cls-4" points="2197.37 1347.76 1305.15 1363.08 1305.15 1353.72 2197.37 1338.41 2197.37 1347.76"/><polygon class="cls-4" points="2197.37 1357.12 1305.15 1372.43 1305.15 1363.08 2197.37 1347.76 2197.37 1357.12"/><polygon class="cls-4" points="2197.37 1366.47 1305.15 1381.79 1305.15 1372.43 2197.37 1357.12 2197.37 1366.47"/><polygon class="cls-4" points="2197.37 1375.83 1305.15 1391.15 1305.15 1381.79 2197.37 1366.47 2197.37 1375.83"/><polygon class="cls-4" points="2197.37 1385.19 1305.15 1400.5 1305.15 1391.15 2197.37 1375.83 2197.37 1385.19"/><polygon class="cls-4" points="2197.37 1394.54 1305.15 1409.86 1305.15 1400.5 2197.37 1385.19 2197.37 1394.54"/><polygon class="cls-4" points="2197.37 1403.9 1305.15 1419.21 1305.15 1409.86 2197.37 1394.54 2197.37 1403.9"/><polygon class="cls-4" points="2197.37 1413.25 1305.15 1428.57 1305.15 1419.21 2197.37 1403.9 2197.37 1413.25"/><polygon class="cls-4" points="2197.37 1422.61 1305.15 1437.93 1305.15 1428.57 2197.37 1413.25 2197.37 1422.61"/><polygon class="cls-4" points="2197.37 1431.97 1305.15 1447.28 1305.15 1437.93 2197.37 1422.61 2197.37 1431.97"/><polygon class="cls-4" points="2197.37 1441.32 1305.15 1456.64 1305.15 1447.28 2197.37 1431.97 2197.37 1441.32"/><polygon class="cls-4" points="2197.37 1450.68 1305.15 1465.99 1305.15 1456.64 2197.37 1441.32 2197.37 1450.68"/><polygon class="cls-4" points="2197.37 1460.03 1305.15 1475.35 1305.15 1465.99 2197.37 1450.68 2197.37 1460.03"/><polygon class="cls-4" points="2197.37 1469.39 1305.15 1484.71 1305.15 1475.35 2197.37 1460.03 2197.37 1469.39"/><polygon class="cls-4" points="2197.37 1478.74 1305.15 1494.06 1305.15 1484.71 2197.37 1469.39 2197.37 1478.74"/><polygon class="cls-4" points="2197.37 1488.1 1305.15 1503.42 1305.15 1494.06 2197.37 1478.74 2197.37 1488.1"/><polygon class="cls-4" points="2197.37 1497.46 1305.15 1512.77 1305.15 1503.42 2197.37 1488.1 2197.37 1497.46"/><polygon class="cls-4" points="2197.37 1506.81 1305.15 1522.13 1305.15 1512.77 2197.37 1497.46 2197.37 1506.81"/><polygon class="cls-4" points="2197.37 1516.17 1305.15 1531.49 1305.15 1522.13 2197.37 1506.81 2197.37 1516.17"/><polygon class="cls-4" points="2197.37 1525.53 1305.15 1540.84 1305.15 1531.49 2197.37 1516.17 2197.37 1525.53"/><polygon class="cls-4" points="2197.37 1534.88 1305.15 1550.2 1305.15 1540.84 2197.37 1525.53 2197.37 1534.88"/><polygon class="cls-4" points="2197.37 1544.24 1305.15 1559.55 1305.15 1550.2 2197.37 1534.88 2197.37 1544.24"/><polygon class="cls-4" points="2197.37 1553.59 1305.15 1568.91 1305.15 1559.55 2197.37 1544.24 2197.37 1553.59"/><polygon class="cls-4" points="2197.37 1562.95 1305.15 1578.27 1305.15 1568.91 2197.37 1553.59 2197.37 1562.95"/><polygon class="cls-4" points="2197.37 1572.31 1305.15 1587.62 1305.15 1578.27 2197.37 1562.95 2197.37 1572.31"/><polygon class="cls-4" points="2197.37 1581.66 1305.15 1596.98 1305.15 1587.62 2197.37 1572.31 2197.37 1581.66"/><polygon class="cls-4" points="2197.37 1591.02 1305.15 1606.33 1305.15 1596.98 2197.37 1581.66 2197.37 1591.02"/><polygon class="cls-4" points="2197.37 1600.37 1305.15 1615.69 1305.15 1606.33 2197.37 1591.02 2197.37 1600.37"/><polygon class="cls-4" points="2197.37 1609.73 1305.15 1625.05 1305.15 1615.69 2197.37 1600.37 2197.37 1609.73"/><polygon class="cls-4" points="2197.37 1619.09 1305.15 1634.4 1305.15 1625.05 2197.37 1609.73 2197.37 1619.09"/><polygon class="cls-4" points="2197.37 1628.44 1305.15 1643.76 1305.15 1634.4 2197.37 1619.09 2197.37 1628.44"/><polygon class="cls-4" points="2197.37 1637.8 1305.15 1653.11 1305.15 1643.76 2197.37 1628.44 2197.37 1637.8"/><polygon class="cls-4" points="1305.15 1653.11 2197.37 1637.8 2197.37 2169.06 1305.15 2169.06 1305.15 1653.11"/></g><circle class="cls-5" cx="1727.52" cy="1049.85" r="136.37" transform="translate(-217.92 1532.97) rotate(-45)"/><g class="cls-27"><polygon class="cls-5" points="1650.94 917.41 1609.6 918.12 1609.6 917.41 1650.94 917.41"/><polygon class="cls-5" points="1882.35 922.8 1609.6 927.48 1609.6 918.12 1650.94 917.41 1882.35 917.41 1882.35 922.8"/><polygon class="cls-5" points="1882.35 932.15 1609.6 936.84 1609.6 927.48 1882.35 922.8 1882.35 932.15"/><polygon class="cls-5" points="1882.35 941.51 1609.6 946.19 1609.6 936.84 1882.35 932.15 1882.35 941.51"/><polygon class="cls-5" points="1882.35 950.87 1609.6 955.55 1609.6 946.19 1882.35 941.51 1882.35 950.87"/><polygon class="cls-5" points="1882.35 960.22 1609.6 964.9 1609.6 955.55 1882.35 950.87 1882.35 960.22"/><polygon class="cls-5" points="1882.35 969.58 1609.6 974.26 1609.6 964.9 1882.35 960.22 1882.35 969.58"/><polygon class="cls-5" points="1882.35 978.93 1609.6 983.62 1609.6 974.26 1882.35 969.58 1882.35 978.93"/><polygon class="cls-5" points="1882.35 988.29 1609.6 992.97 1609.6 983.62 1882.35 978.93 1882.35 988.29"/><polygon class="cls-5" points="1882.35 997.64 1609.6 1002.33 1609.6 992.97 1882.35 988.29 1882.35 997.64"/><polygon class="cls-5" points="1882.35 1007 1609.6 1011.68 1609.6 1002.33 1882.35 997.64 1882.35 1007"/><polygon class="cls-5" points="1882.35 1016.36 1609.6 1021.04 1609.6 1011.68 1882.35 1007 1882.35 1016.36"/><polygon class="cls-5" points="1882.35 1025.71 1609.6 1030.39 1609.6 1021.04 1882.35 1016.36 1882.35 1025.71"/><polygon class="cls-5" points="1882.35 1035.07 1609.6 1039.75 1609.6 1030.39 1882.35 1025.71 1882.35 1035.07"/><polygon class="cls-5" points="1882.35 1044.42 1609.6 1049.11 1609.6 1039.75 1882.35 1035.07 1882.35 1044.42"/><polygon class="cls-5" points="1882.35 1053.78 1609.6 1058.46 1609.6 1049.11 1882.35 1044.42 1882.35 1053.78"/><polygon class="cls-5" points="1882.35 1063.14 1609.6 1067.82 1609.6 1058.46 1882.35 1053.78 1882.35 1063.14"/><polygon class="cls-5" points="1882.35 1072.49 1609.6 1077.17 1609.6 1067.82 1882.35 1063.14 1882.35 1072.49"/><polygon class="cls-5" points="1882.35 1081.85 1609.6 1086.53 1609.6 1077.17 1882.35 1072.49 1882.35 1081.85"/><polygon class="cls-5" points="1882.35 1091.2 1609.6 1095.89 1609.6 1086.53 1882.35 1081.85 1882.35 1091.2"/><polygon class="cls-5" points="1882.35 1100.56 1609.6 1105.24 1609.6 1095.89 1882.35 1091.2 1882.35 1100.56"/><polygon class="cls-5" points="1882.35 1109.92 1609.6 1114.6 1609.6 1105.24 1882.35 1100.56 1882.35 1109.92"/><polygon class="cls-5" points="1882.35 1119.27 1609.6 1123.95 1609.6 1114.6 1882.35 1109.92 1882.35 1119.27"/><polygon class="cls-5" points="1882.35 1128.63 1609.6 1133.31 1609.6 1123.95 1882.35 1119.27 1882.35 1128.63"/><polygon class="cls-5" points="1882.35 1137.98 1609.6 1142.67 1609.6 1133.31 1882.35 1128.63 1882.35 1137.98"/><polygon class="cls-5" points="1882.35 1147.34 1609.6 1152.02 1609.6 1142.67 1882.35 1137.98 1882.35 1147.34"/><polygon class="cls-5" points="1882.35 1156.7 1609.6 1161.38 1609.6 1152.02 1882.35 1147.34 1882.35 1156.7"/><polygon class="cls-5" points="1882.35 1166.05 1609.6 1170.73 1609.6 1161.38 1882.35 1156.7 1882.35 1166.05"/><polygon class="cls-5" points="1882.35 1175.41 1609.6 1180.09 1609.6 1170.73 1882.35 1166.05 1882.35 1175.41"/><polygon class="cls-5" points="1882.35 1184.76 1609.6 1189.45 1609.6 1180.09 1882.35 1175.41 1882.35 1184.76"/><polygon class="cls-5" points="1609.6 1189.45 1882.35 1184.76 1882.35 1190.15 1609.6 1190.15 1609.6 1189.45"/></g></g><rect class="cls-6" x="1451.67" y="2403.86" width="587.99" height="200.35" rx="100.18"/><g class="cls-28"><polygon class="cls-29" points="2039.66 2512.78 2036.17 2403.86 2039.66 2403.86 2039.66 2512.78"/><polygon class="cls-30" points="2033.5 2604.21 2027.08 2403.86 2036.17 2403.86 2039.66 2512.78 2039.66 2604.21 2033.5 2604.21"/><polygon class="cls-31" points="2024.42 2604.21 2017.99 2403.86 2027.08 2403.86 2033.5 2604.21 2024.42 2604.21"/><polygon class="cls-32" points="2015.33 2604.21 2008.91 2403.86 2017.99 2403.86 2024.42 2604.21 2015.33 2604.21"/><polygon class="cls-33" points="2006.24 2604.21 1999.82 2403.86 2008.91 2403.86 2015.33 2604.21 2006.24 2604.21"/><polygon class="cls-34" points="1997.15 2604.21 1990.73 2403.86 1999.82 2403.86 2006.24 2604.21 1997.15 2604.21"/><polygon class="cls-35" points="1988.06 2604.21 1981.64 2403.86 1990.73 2403.86 1997.15 2604.21 1988.06 2604.21"/><polygon class="cls-36" points="1978.98 2604.21 1972.55 2403.86 1981.64 2403.86 1988.06 2604.21 1978.98 2604.21"/><polygon class="cls-37" points="1969.89 2604.21 1963.47 2403.86 1972.55 2403.86 1978.98 2604.21 1969.89 2604.21"/><polygon class="cls-38" points="1960.8 2604.21 1954.38 2403.86 1963.47 2403.86 1969.89 2604.21 1960.8 2604.21"/><polygon class="cls-39" points="1951.71 2604.21 1945.29 2403.86 1954.38 2403.86 1960.8 2604.21 1951.71 2604.21"/><polygon class="cls-40" points="1942.62 2604.21 1936.2 2403.86 1945.29 2403.86 1951.71 2604.21 1942.62 2604.21"/><polygon class="cls-41" points="1933.54 2604.21 1927.11 2403.86 1936.2 2403.86 1942.62 2604.21 1933.54 2604.21"/><polygon class="cls-42" points="1924.45 2604.21 1918.03 2403.86 1927.11 2403.86 1933.54 2604.21 1924.45 2604.21"/><polygon class="cls-43" points="1915.36 2604.21 1908.94 2403.86 1918.03 2403.86 1924.45 2604.21 1915.36 2604.21"/><polygon class="cls-44" points="1906.27 2604.21 1899.85 2403.86 1908.94 2403.86 1915.36 2604.21 1906.27 2604.21"/><polygon class="cls-45" points="1897.18 2604.21 1890.76 2403.86 1899.85 2403.86 1906.27 2604.21 1897.18 2604.21"/><polygon class="cls-46" points="1888.1 2604.21 1881.67 2403.86 1890.76 2403.86 1897.18 2604.21 1888.1 2604.21"/><polygon class="cls-47" points="1879.01 2604.21 1872.59 2403.86 1881.67 2403.86 1888.1 2604.21 1879.01 2604.21"/><polygon class="cls-48" points="1869.92 2604.21 1863.5 2403.86 1872.59 2403.86 1879.01 2604.21 1869.92 2604.21"/><polygon class="cls-49" points="1860.83 2604.21 1854.41 2403.86 1863.5 2403.86 1869.92 2604.21 1860.83 2604.21"/><polygon class="cls-50" points="1851.74 2604.21 1845.32 2403.86 1854.41 2403.86 1860.83 2604.21 1851.74 2604.21"/><polygon class="cls-51" points="1842.65 2604.21 1836.23 2403.86 1845.32 2403.86 1851.74 2604.21 1842.65 2604.21"/><polygon class="cls-52" points="1833.57 2604.21 1827.15 2403.86 1836.23 2403.86 1842.65 2604.21 1833.57 2604.21"/><polygon class="cls-53" points="1824.48 2604.21 1818.06 2403.86 1827.15 2403.86 1833.57 2604.21 1824.48 2604.21"/><polygon class="cls-54" points="1815.39 2604.21 1808.97 2403.86 1818.06 2403.86 1824.48 2604.21 1815.39 2604.21"/><polygon class="cls-55" points="1806.3 2604.21 1799.88 2403.86 1808.97 2403.86 1815.39 2604.21 1806.3 2604.21"/><polygon class="cls-56" points="1797.21 2604.21 1790.79 2403.86 1799.88 2403.86 1806.3 2604.21 1797.21 2604.21"/><polygon class="cls-57" points="1788.13 2604.21 1781.71 2403.86 1790.79 2403.86 1797.21 2604.21 1788.13 2604.21"/><polygon class="cls-58" points="1779.04 2604.21 1772.62 2403.86 1781.71 2403.86 1788.13 2604.21 1779.04 2604.21"/><polygon class="cls-59" points="1769.95 2604.21 1763.53 2403.86 1772.62 2403.86 1779.04 2604.21 1769.95 2604.21"/><polygon class="cls-60" points="1760.86 2604.21 1754.44 2403.86 1763.53 2403.86 1769.95 2604.21 1760.86 2604.21"/><polygon class="cls-61" points="1751.78 2604.21 1745.35 2403.86 1754.44 2403.86 1760.86 2604.21 1751.78 2604.21"/><polygon class="cls-62" points="1742.69 2604.21 1736.27 2403.86 1745.35 2403.86 1751.78 2604.21 1742.69 2604.21"/><polygon class="cls-63" points="1733.6 2604.21 1727.18 2403.86 1736.27 2403.86 1742.69 2604.21 1733.6 2604.21"/><polygon class="cls-64" points="1724.51 2604.21 1718.09 2403.86 1727.18 2403.86 1733.6 2604.21 1724.51 2604.21"/><polygon class="cls-65" points="1715.42 2604.21 1709 2403.86 1718.09 2403.86 1724.51 2604.21 1715.42 2604.21"/><polygon class="cls-66" points="1706.34 2604.21 1699.91 2403.86 1709 2403.86 1715.42 2604.21 1706.34 2604.21"/><polygon class="cls-67" points="1697.25 2604.21 1690.83 2403.86 1699.91 2403.86 1706.34 2604.21 1697.25 2604.21"/><polygon class="cls-68" points="1688.16 2604.21 1681.74 2403.86 1690.83 2403.86 1697.25 2604.21 1688.16 2604.21"/><polygon class="cls-69" points="1679.07 2604.21 1672.65 2403.86 1681.74 2403.86 1688.16 2604.21 1679.07 2604.21"/><polygon class="cls-70" points="1669.98 2604.21 1663.56 2403.86 1672.65 2403.86 1679.07 2604.21 1669.98 2604.21"/><polygon class="cls-71" points="1660.89 2604.21 1654.47 2403.86 1663.56 2403.86 1669.98 2604.21 1660.89 2604.21"/><polygon class="cls-72" points="1651.81 2604.21 1645.38 2403.86 1654.47 2403.86 1660.89 2604.21 1651.81 2604.21"/><polygon class="cls-73" points="1642.72 2604.21 1636.3 2403.86 1645.38 2403.86 1651.81 2604.21 1642.72 2604.21"/><polygon class="cls-74" points="1633.63 2604.21 1627.21 2403.86 1636.3 2403.86 1642.72 2604.21 1633.63 2604.21"/><polygon class="cls-75" points="1624.54 2604.21 1618.12 2403.86 1627.21 2403.86 1633.63 2604.21 1624.54 2604.21"/><polygon class="cls-76" points="1615.45 2604.21 1609.03 2403.86 1618.12 2403.86 1624.54 2604.21 1615.45 2604.21"/><polygon class="cls-77" points="1606.37 2604.21 1599.94 2403.86 1609.03 2403.86 1615.45 2604.21 1606.37 2604.21"/><polygon class="cls-78" points="1597.28 2604.21 1590.86 2403.86 1599.94 2403.86 1606.37 2604.21 1597.28 2604.21"/><polygon class="cls-79" points="1588.19 2604.21 1581.77 2403.86 1590.86 2403.86 1597.28 2604.21 1588.19 2604.21"/><polygon class="cls-80" points="1579.1 2604.21 1572.68 2403.86 1581.77 2403.86 1588.19 2604.21 1579.1 2604.21"/><polygon class="cls-81" points="1570.02 2604.21 1563.59 2403.86 1572.68 2403.86 1579.1 2604.21 1570.02 2604.21"/><polygon class="cls-82" points="1560.93 2604.21 1554.51 2403.86 1563.59 2403.86 1570.02 2604.21 1560.93 2604.21"/><polygon class="cls-83" points="1551.84 2604.21 1545.42 2403.86 1554.51 2403.86 1560.93 2604.21 1551.84 2604.21"/><polygon class="cls-84" points="1542.75 2604.21 1536.33 2403.86 1545.42 2403.86 1551.84 2604.21 1542.75 2604.21"/><polygon class="cls-85" points="1533.66 2604.21 1527.24 2403.86 1536.33 2403.86 1542.75 2604.21 1533.66 2604.21"/><polygon class="cls-86" points="1524.57 2604.21 1518.15 2403.86 1527.24 2403.86 1533.66 2604.21 1524.57 2604.21"/><polygon class="cls-87" points="1515.49 2604.21 1509.07 2403.86 1518.15 2403.86 1524.57 2604.21 1515.49 2604.21"/><polygon class="cls-88" points="1506.4 2604.21 1499.98 2403.86 1509.07 2403.86 1515.49 2604.21 1506.4 2604.21"/><polygon class="cls-89" points="1497.31 2604.21 1490.89 2403.86 1499.98 2403.86 1506.4 2604.21 1497.31 2604.21"/><polygon class="cls-90" points="1488.22 2604.21 1481.8 2403.86 1490.89 2403.86 1497.31 2604.21 1488.22 2604.21"/><polygon class="cls-91" points="1479.13 2604.21 1472.71 2403.86 1481.8 2403.86 1488.22 2604.21 1479.13 2604.21"/><polygon class="cls-92" points="1470.05 2604.21 1463.63 2403.86 1472.71 2403.86 1479.13 2604.21 1470.05 2604.21"/><polygon class="cls-93" points="1463.63 2403.86 1470.05 2604.21 1451.67 2604.21 1451.67 2403.86 1463.63 2403.86"/></g><rect class="cls-3" x="1089.49" y="1784.27" width="1310.85" height="219.88" rx="50.74"/><rect class="cls-3" x="1089.49" y="2067.58" width="1310.85" height="219.88" rx="50.74"/><circle class="cls-4" cx="1178.87" cy="2175.7" r="29.6" transform="translate(-1137.91 2998.23) rotate(-80.87)"/><circle class="cls-94" cx="1288.81" cy="2175.7" r="29.6" transform="translate(-1106.34 2934.09) rotate(-76.72)"/><circle class="cls-94" cx="1398.75" cy="2175.7" r="29.6" transform="translate(-1110.31 1630.25) rotate(-45)"/><circle class="cls-94" cx="1508.69" cy="2175.7" r="29.6" transform="translate(-862.12 3320.34) rotate(-80.78)"/><circle class="cls-94" cx="1618.64" cy="2175.7" r="29.6" transform="translate(-852.29 3255.1) rotate(-76.72)"/><circle class="cls-94" cx="1728.58" cy="2175.7" r="29.6" transform="translate(-1013.71 1863.47) rotate(-45)"/><circle class="cls-4" cx="1838.52" cy="2175.7" r="29.6" transform="translate(-682.93 3469.1) rotate(-76.72)"/><rect class="cls-95" x="1167.72" y="1868.84" width="589.88" height="50.74" rx="25.37"/><rect class="cls-95" x="1818.92" y="1868.84" width="348.86" height="50.74" rx="25.37"/><g class="cls-96"><path class="cls-3" d="M2460.4,1367.76,983.75,2844.42v388.32a94.74,94.74,0,0,0,94.74,94.74h390.78l991.13-991.13Z" transform="translate(18.45 3.94)"/><path class="cls-3" d="M2460.4,1367.76,983.75,2844.42v388.32a94.74,94.74,0,0,0,94.74,94.74h390.78l991.13-991.13Z" transform="translate(18.45 3.94)"/><path class="cls-3" d="M2365.66,452.57H1800.58L983.75,1269.4v740.43L2459.47,534.11A94.75,94.75,0,0,0,2365.66,452.57Z" transform="translate(18.45 3.94)"/><path class="cls-3" d="M2365.66,452.57H1800.58L983.75,1269.4v740.43L2459.47,534.11A94.75,94.75,0,0,0,2365.66,452.57Z" transform="translate(18.45 3.94)"/></g><path class="cls-3" d="M2078.44,2881c16.56,4.51,83.77-3.21,157-19.6,30.81,35.82,103.19,90.57,259.26,94.53,233.34,5.95,217.84-14.84,217.84-14.84,32.06-18.18,79-116.42,121.47-220.62,31.18,28.61,117.19,105.93,146.7,116.45,36.29,13,106.31,15.55,132.23-36.29s-18.14-137.43-18.14-137.43-54.47-137.42-124.47-256.68c-27.6-47.05-48.37-71.91-63.38-84.76a49.44,49.44,0,0,0-21.92-14.31l-180.61-61.27-287.18,22.41a49.09,49.09,0,0,0-29.17,12.58h0c-17.93,5.53-48.76,23.88-99.62,76.08-98.53,101.13-225.58,318.92-243.73,399.3S2049.92,2873.25,2078.44,2881Z" transform="translate(18.45 3.94)"/><path class="cls-4" d="M2733.1,2923.53a1.94,1.94,0,0,1-1.18-.41,1.9,1.9,0,0,1-.3-2.66c25.75-32.45,59.62-100,100.68-200.67l1-2.51,2,1.83c24.68,22.63,86.17,78,124.22,103.77a1.89,1.89,0,0,1-2.12,3.13c-37.26-25.2-96.73-78.57-122.65-102.28-40.73,99.65-74.44,166.62-100.19,199.08A1.91,1.91,0,0,1,2733.1,2923.53Z" transform="translate(18.45 3.94)"/><path class="cls-4" d="M3106.15,2813.7a1.9,1.9,0,0,1-1.51-3,73.31,73.31,0,0,0,6.65-10.86c25.2-50.42-17.7-134.88-18.13-135.73-.62-1.54-55.29-138.82-124.42-256.58-23.75-40.48-44.94-68.84-63-84.29l-.18-.18a47.84,47.84,0,0,0-21.08-13.77l-73.68-25a1.88,1.88,0,1,1,1.21-3.57l73.65,25a51.44,51.44,0,0,1,22.64,14.75c18.34,15.74,39.76,44.39,63.68,85.16,69.27,118,124.05,255.56,124.59,256.93,1.74,3.36,44.13,86.86,18.08,139a77.33,77.33,0,0,1-7,11.42A1.89,1.89,0,0,1,3106.15,2813.7Z" transform="translate(18.45 3.94)"/><path class="cls-23" d="M2892.59,3197.36c7.78,0,36.3-7.78,153-15.56s186.68,10.37,186.68,10.37,38.89,15.56,38.89,54.45-23.33,64.82-49.26,70-168.54,15.55-210,10.37-129.64-25.93-153-49.26S2892.59,3197.36,2892.59,3197.36Z" transform="translate(18.45 3.94)"/><path class="cls-23" d="M2784.88,2649.58H2683.76c-14.32,0-22.47-11.13-18.21-24.85l71-228.6c4.26-13.72,19.33-24.85,33.65-24.85h101.12c14.32,0,22.47,11.13,18.21,24.85l-71,228.6C2814.26,2638.45,2799.2,2649.58,2784.88,2649.58Z" transform="translate(18.45 3.94)"/><path class="cls-4" d="M2402.54,2925.11l311.14,15.56s217.8-95.94,290.4-108.9,119.27-7.78,153,41.48,20.74,137.42-38.9,191.87S2918.52,3187,2918.52,3187s-215.21,85.56-293,101.12-88.16,15.55-88.16,15.55-25.93,10.38-36.3-114.08-51.85-83-51.85-83S2402.54,2917.33,2402.54,2925.11Z" transform="translate(18.45 3.94)"/><path class="cls-4" d="M2366.25,3308.85S2202.9,3244,2140.67,3137.72,2075.85,2958.82,2094,2907s119.27-64.82,119.27-64.82,49.26-7.78,158.16,41.49,420,233.35,420,233.35l54.45,33.71s15.55,36.3-23.34,88.15-83,46.67-83,46.67l-230.76-72.6-49.26,25.93-31.12,62.23Z" transform="translate(18.45 3.94)"/><path class="cls-23" d="M2480.33,3226s-51.86-15.72-140-15.72-165.94,5.24-186.69,23.58-33.7,49.79-20.74,73.37,38.51,51.76,119.27,52.4c98.73.78,134.83,2.62,210-26.2s59.63-81.23,59.63-81.23Z" transform="translate(18.45 3.94)"/><path class="cls-97" d="M2508.85,3207.73l-56.18,13.83s-11.23,32.84,6.92,58.77,28.52,36.3,28.52,36.3l77.78-18.15s-25.38-18.63-44.08-46.67C2501.07,3220.69,2508.85,3207.73,2508.85,3207.73Z" transform="translate(18.45 3.94)"/><path class="cls-97" d="M2835.55,3137.72,2952.22,3200s20.75,31.11,7.78,57-31.11,38.9-31.11,38.9l-129.64-33.71s20.74-10.37,36.3-54.45S2835.55,3137.72,2835.55,3137.72Z" transform="translate(18.45 3.94)"/><path class="cls-98" d="M2913.33,2590.64l-19.12-94.58-60.93-28.84-78.09-1.4a6.14,6.14,0,0,0-5.61,8.86h0a26.69,26.69,0,0,0,24,14.84l35.32-.1,38.36,12.2-57.47,7.66-36.21,22.34a18.44,18.44,0,0,0-6.66,24.21l8.73,16.73,3.08,26.74L2772,2614a31.45,31.45,0,0,0,28,9.93l9.5-1.43,20.84,30.39c13.88,10.36,42.37,28.15,59,23.25h0a44.67,44.67,0,0,0,30.15-55.71Z" transform="translate(18.45 3.94)"/><path class="cls-97" d="M2558.11,2601l46.18-58.68,40.43-34.32a42,42,0,0,1,9.62-6.14l47.78-22,.1.86c2,16.05-6,32.71-20.51,42.64l-30.41,20.9,70.77-13.44,54.34-27c9.24-5.33,20.33-5,28,.91h0a33.41,33.41,0,0,1,13,27.41l-.38,22.77c-.25,15.35-7.51,30.5-19.82,41.37L2745,2642.33a58.19,58.19,0,0,1-20,11.55L2581,2696.19a30.17,30.17,0,0,1-32.76-11h0a57.92,57.92,0,0,1-1.93-65.91Z" transform="translate(18.45 3.94)"/><path class="cls-99" d="M2680.2,2572.54a1.88,1.88,0,0,1-1.83-1.45,1.9,1.9,0,0,1,1.39-2.28l41.68-10a86,86,0,0,0,25.76-10.65l54.52-37.86a1.89,1.89,0,0,1,2.15,3.11l-54.6,37.91a90,90,0,0,1-27,11.17l-41.66,10A2.12,2.12,0,0,1,2680.2,2572.54Z" transform="translate(18.45 3.94)"/><path class="cls-99" d="M2690.45,2605.63a1.89,1.89,0,0,1-.52-3.7l36.25-10.41a86.16,86.16,0,0,0,21.72-9.8l59.94-44a1.89,1.89,0,0,1,2.23,3L2750,2584.84a89.85,89.85,0,0,1-22.79,10.31L2691,2605.56A1.86,1.86,0,0,1,2690.45,2605.63Z" transform="translate(18.45 3.94)"/><path class="cls-99" d="M2698.84,2636a1.89,1.89,0,0,1-.61-3.68l34.31-11.78a86,86,0,0,0,26.12-14.86l53.08-44a1.89,1.89,0,0,1,2.41,2.9l-53.08,44a89.58,89.58,0,0,1-27.29,15.51l-34.33,11.79A1.87,1.87,0,0,1,2698.84,2636Z" transform="translate(18.45 3.94)"/><path class="cls-97" d="M2592.83,2192.52l-30,78.19a82.43,82.43,0,0,0-5,38.28h0a78,78,0,0,0,84.18,69.52h0a44.31,44.31,0,0,0,36.16-24.86l59.22-122.46Z" transform="translate(18.45 3.94)"/><path class="cls-3" d="M2687.76,3269.25a2.19,2.19,0,0,1-.36,0c-120.72-23.12-438.07-180.08-441.26-181.66a1.89,1.89,0,0,1,1.67-3.39c3.19,1.58,320.08,158.32,440.3,181.34a1.89,1.89,0,0,1-.35,3.74Z" transform="translate(18.45 3.94)"/><path class="cls-3" d="M2822.58,3131.83a1.86,1.86,0,0,1-.91-.23l-350-191.87a1.89,1.89,0,1,1,1.82-3.31l350,191.87a1.89,1.89,0,0,1-.91,3.54Z" transform="translate(18.45 3.94)"/><path class="cls-3" d="M2718.87,3061.83a1.89,1.89,0,0,1-.81-3.6l212.61-101.12a1.89,1.89,0,1,1,1.62,3.41l-212.61,101.12A1.81,1.81,0,0,1,2718.87,3061.83Z" transform="translate(18.45 3.94)"/><path class="cls-3" d="M2635.9,2986.64a1.89,1.89,0,0,1-.64-3.67c35.77-12.77,90-41.1,90.51-41.38a1.89,1.89,0,1,1,1.76,3.34c-.55.29-55,28.73-91,41.59A1.76,1.76,0,0,1,2635.9,2986.64Z" transform="translate(18.45 3.94)"/><path class="cls-99" d="M2156.22,2667.72a1.89,1.89,0,0,1-.38-3.74c1.84-.39,185.31-38.88,285.26-57.05l57.38-10.4h38.89a1.89,1.89,0,1,1,0,3.77h-38.72l-56.87,10.35c-99.9,18.16-283.32,56.64-285.16,57A2.85,2.85,0,0,1,2156.22,2667.72Z" transform="translate(18.45 3.94)"/><path class="cls-99" d="M2314.39,2836.25a1.89,1.89,0,0,1-.45-3.72c91.84-22.34,216.27-83.59,224.73-87.79l25.65-38.47a1.89,1.89,0,1,1,3.14,2.09l-26.2,39.31-.45.23c-1.3.64-130.93,65.18-226,88.3A2.12,2.12,0,0,1,2314.39,2836.25Z" transform="translate(18.45 3.94)"/><path class="cls-99" d="M2301.42,2636.6a1.86,1.86,0,0,1-1.16-.4,1.89,1.89,0,0,1-.32-2.65l85.56-108.9a1.89,1.89,0,1,1,3,2.33l-85.56,108.9A1.87,1.87,0,0,1,2301.42,2636.6Z" transform="translate(18.45 3.94)"/><path class="cls-99" d="M3068.9,2657.35a1.88,1.88,0,0,1-1-.31c-49.09-31.91-94.07-45.3-97.76-46.36H2926.3a1.89,1.89,0,0,1,0-3.78l44.58.07c.47.13,47.55,13.43,99,46.91a1.89,1.89,0,0,1-1,3.47Z" transform="translate(18.45 3.94)"/><path class="cls-99" d="M2858.88,2724.76a1.88,1.88,0,0,1-1.86-1.58l-7.78-46.67a1.89,1.89,0,0,1,1.55-2.17,1.87,1.87,0,0,1,2.17,1.55l7.78,46.67a1.88,1.88,0,0,1-1.55,2.17A1.63,1.63,0,0,1,2858.88,2724.76Z" transform="translate(18.45 3.94)"/><path class="cls-95" d="M2831.56,2169.9c7-12.3,10.84-26.05,14.66-39.65l5.61-20c2.2-7.85,4.43-15.92,3.69-24-.8-8.72-5.33-17.21-12.62-22.07s-17.32-5.65-24.93-1.3c-5.86,3.35-9.8,9.19-13.52,14.83q-7.85,11.87-15.68,23.75c-5.25,7.94-10.57,16-13.21,25.18-4.33,14.93-1.08,31,3.62,45.79,1.92,6,4.16,12.15,8.38,16.87C2803.64,2207.27,2823.55,2184,2831.56,2169.9Z" transform="translate(18.45 3.94)"/><path class="cls-97" d="M2839.72,2036.08c-9.57-20.26-31.92-31.2-53.61-36.74a193,193,0,0,0-130.27,13c-14.26,6.86-27.89,15.71-37.8,28.06-19.17,23.89-21.82,57.16-36,84.16a26.41,26.41,0,0,0-11-4.2c-10.63-1.4-21.52,3.54-28.75,11.47s-11.09,18.52-12.41,29.18c-1.54,12.38.43,25.73,8.14,35.52,10.6,13.49,29.06,17.31,46,20.23-7.13,30.33,3.57,62.86,20.53,88,20,29.67,49.61,48.21,84.7,55.11,31.76,6.25,60.18-6.55,78.93-32.51,16.45-22.79,23.61-50.81,30.44-78.08l44.25-176.85C2845.77,2060.66,2844.91,2047.07,2839.72,2036.08Z" transform="translate(18.45 3.94)"/><path class="cls-95" d="M2677.06,2131.72a45.68,45.68,0,0,0-11-.35c-3.25.45-5.72,1.8-5.45,3.76.36,2.6,5.16,5.26,9.85,7.14,11.11,4.43,23.68,6.81,35.78,8.61,5.82.86,12.28,1.58,15.93,0,3.1-1.35,3.13-4.19.37-6.72-1.94-1.78-5-2.61-8.17-3.64A192.85,192.85,0,0,0,2677.06,2131.72Z" transform="translate(18.45 3.94)"/><path class="cls-95" d="M2803.37,2154a43.41,43.41,0,0,1,9.93,4.77c2.68,1.93,4.25,4.36,3.1,6.09-1.52,2.29-7,2.59-12.08,2.19-11.93-.95-24.22-4.54-35.82-8.45-5.57-1.88-11.65-4.2-14.16-7.4-2.13-2.72-.83-5.42,2.79-6.53,2.55-.79,5.69-.14,9,.33A182.47,182.47,0,0,1,2803.37,2154Z" transform="translate(18.45 3.94)"/><ellipse class="cls-99" cx="2678.05" cy="2179.64" rx="10.87" ry="6.52" transform="translate(-44.5 4283.49) rotate(-76.6)"/><ellipse class="cls-99" cx="2769.24" cy="2202.21" rx="10.87" ry="6.52" transform="translate(3.6 4389.55) rotate(-76.6)"/><path d="M2714.24,2283.75a1.72,1.72,0,0,1-.39,0,59.33,59.33,0,0,1-43.41-36.35,2.08,2.08,0,1,1,3.88-1.48,55.11,55.11,0,0,0,40.31,33.75,2.08,2.08,0,0,1-.39,4.12Z" transform="translate(18.45 3.94)"/><path d="M2674.21,2356.48a1.89,1.89,0,0,1-.47-.06,121.93,121.93,0,0,1-94.55-118.9,2.08,2.08,0,0,1,2.08-2.07h0a2.07,2.07,0,0,1,2.07,2.07,117.79,117.79,0,0,0,91.35,114.86,2.08,2.08,0,0,1-.48,4.1Z" transform="translate(18.45 3.94)"/><path class="cls-94" d="M2580.31,2144.72a6.5,6.5,0,0,0,3.11-1.23c10.58-7.5,19.48-21,27.79-30.88,9.31-11,24.2-12,33.56-23,4.66-5.48,3.59-21.15,8.44-26.47,2.1-2.29,10.61-14.1,13.57-14.1,37.19,3.65,68.91,19.88,104.95,29.71,18,4.91,39.13,4.67,59,8,8.72,1.48,18.86,7.08,25.49.48a119.4,119.4,0,0,0,15.37-18.22,64.61,64.61,0,0,0,10.14-24c4-21.93-6.06-43.7-15.84-63.73-7.61-15.57-25-35.74-40.56-43.28-14.61-7.06-32.3-4.51-47.25-10.81-11.11-4.67-20.19-14-32-16.5-12.86-2.71-25.7,3.33-38.05,7.78a166.6,166.6,0,0,1-61.78,9.74c-11.86-.39-23.75-2.06-35.56-.92s-24,5.54-31.25,14.91c-8.82,11.36-8.64,27.13-13.71,40.59-5.49,14.59-17,26.06-24.54,39.71-8.82,15.92-1.62,36.63-4.67,54.58-1.36,8-2.7,16.41-.26,24.18,3.32,10.56,12.85,17.74,21.84,24.2,6.23,4.47,2.08,6.58,8.31,11.06C2570.68,2139.63,2575.44,2145.22,2580.31,2144.72Z" transform="translate(18.45 3.94)"/><path class="cls-97" d="M2739.85,2187c.67,3,2.32,5.7,3.81,8.43a91.27,91.27,0,0,1,8.84,23.38,11.25,11.25,0,0,1,.26,5.63c-.71,2.47-2.92,4.25-5.18,5.64-6.6,4.08-14.37,6.15-22,8.16-1.92.51-4.19,1-5.78-.24s-1.66-3.59-1.35-5.54c1.44-9.2,6-17.65,7.67-26.81,1.36-7.52.72-15.32,2.21-22.81a14.34,14.34,0,0,1,2.83-6.69,7.14,7.14,0,0,1,6.82-2.48c2.42.59,4.34,3.14,3.39,5.36C2740.17,2181.78,2739.14,2183.8,2739.85,2187Z" transform="translate(18.45 3.94)"/><path d="M2724.31,2242.76a2.07,2.07,0,0,1-.85-4l21.55-9.67a10.67,10.67,0,0,0,5.59-13.54l-11.22-29.23a14.64,14.64,0,0,1,1.71-13.69,2.08,2.08,0,0,1,3.4,2.39,10.48,10.48,0,0,0-1.23,9.81l11.21,29.24a14.8,14.8,0,0,1-7.76,18.81l-21.56,9.67A2.08,2.08,0,0,1,2724.31,2242.76Z" transform="translate(18.45 3.94)"/><path class="cls-97" d="M2585.78,2124.48c4.2,1.64,8.33,3.95,10.92,7.64,3,4.32,3.51,9.92,3.06,15.16s-1.88,10.72-5.51,14.58c-3.33,3.55-8.16,5.36-13,6a32.76,32.76,0,0,1-24-6.61c-3-2.37-5.74-5.49-6.49-9.27-.79-4,.67-8,2.11-11.77,1.54-4.07-5-9.7-3.49-13.77,1-2.63,9.91-4.63,13-5.36C2569.58,2119.36,2579.15,2121.88,2585.78,2124.48Z" transform="translate(18.45 3.94)"/><path d="M2558.05,2177.79a2.16,2.16,0,0,1-.56-.08,2.08,2.08,0,0,1-1.45-2.55,37.41,37.41,0,0,1,26.48-25.94,2.07,2.07,0,0,1,1,4,33.18,33.18,0,0,0-23.49,23A2.09,2.09,0,0,1,2558.05,2177.79Z" transform="translate(18.45 3.94)"/><path class="cls-99" d="M2633.32,2418.91a104.21,104.21,0,0,1-49.63-12.28c-33.24-18.07-55.18-55.62-54.6-93.45a1.89,1.89,0,0,1,1.89-1.86h0a1.89,1.89,0,0,1,1.86,1.91c-.57,36.47,20.58,72.67,52.63,90.08s73.92,15.47,104.21-4.84a1.89,1.89,0,0,1,2.1,3.14C2674.69,2413.09,2654,2418.91,2633.32,2418.91Z" transform="translate(18.45 3.94)"/><path class="cls-3" d="M2160.75,2947a1.9,1.9,0,0,1-1.66-2.79,409.69,409.69,0,0,1,42.18-63.46,1.89,1.89,0,0,1,2.94,2.38,407.19,407.19,0,0,0-41.8,62.87A1.88,1.88,0,0,1,2160.75,2947Z" transform="translate(18.45 3.94)"/><path class="cls-3" d="M3161.59,2897.89a1.8,1.8,0,0,1-.64-.11l-44.74-16.11a1.89,1.89,0,1,1,1.28-3.55l44.74,16.11a1.89,1.89,0,0,1-.64,3.66Z" transform="translate(18.45 3.94)"/><path class="cls-3" d="M2301.8,3301a2.2,2.2,0,0,1-2.21-2.14l-1.26-41.54a2.21,2.21,0,0,1,2-2.26l128.37-12.59a2.21,2.21,0,0,1,.44,4.4l-126.32,12.39,1.13,37.23,126.14-4.95a2.3,2.3,0,0,1,2.3,2.13,2.22,2.22,0,0,1-2.13,2.3l-128.37,5Z" transform="translate(18.45 3.94)"/><path class="cls-3" d="M2179.21,3330.24a2.21,2.21,0,0,1-1.91-1.09c-16.17-27.49-14.31-64.67,4.52-90.42a2.21,2.21,0,0,1,3.57,2.62c-17.82,24.36-19.58,59.54-4.28,85.56a2.21,2.21,0,0,1-.79,3A2.13,2.13,0,0,1,2179.21,3330.24Z" transform="translate(18.45 3.94)"/><path class="cls-3" d="M3080.55,3266.06c-31.63,0-67.79-.31-85.43-1.57a2.22,2.22,0,0,1,.32-4.42c31.94,2.29,125.34,1.44,141,1.28l-1.14-42.2-142.62-2.48a2.22,2.22,0,0,1,0-4.43h0l144.74,2.52a2.21,2.21,0,0,1,2.17,2.15l1.26,46.57a2.15,2.15,0,0,1-.62,1.59,2.2,2.2,0,0,1-1.56.68C3138.25,3265.76,3111.58,3266.06,3080.55,3266.06Z" transform="translate(18.45 3.94)"/><path class="cls-3" d="M3230.51,3285.81a2.22,2.22,0,0,1-1.84-3.44c13.43-20.22,13.1-48.22-.8-68.12a2.21,2.21,0,1,1,3.62-2.53c14.92,21.34,15.28,51.4.87,73.1A2.22,2.22,0,0,1,3230.51,3285.81Z" transform="translate(18.45 3.94)"/><g class="cls-100"><ellipse class="cls-94" cx="2053.86" cy="3351.06" rx="1421.85" ry="40.17"/></g></g></g></svg>