<svg xmlns="http://www.w3.org/2000/svg" xmlns:xlink="http://www.w3.org/1999/xlink" viewBox="0 0 3250.36 2953.21"><defs><style>.cls-1{fill:#642407;}.cls-2{fill:#fff;}.cls-3{fill:#f95b12;}.cls-4{fill:#fa7c41;}.cls-5{fill:url(#linear-gradient);}.cls-6{fill:#feded0;}.cls-7{fill:#f9dbe7;}.cls-8{fill:#95370b;}.cls-9{clip-path:url(#clip-path);}.cls-10{clip-path:url(#clip-path-2);}.cls-11{clip-path:url(#clip-path-3);}.cls-12{clip-path:url(#clip-path-4);}.cls-13{clip-path:url(#clip-path-5);}.cls-14{fill:url(#linear-gradient-3);}.cls-15{fill:url(#linear-gradient-4);}.cls-16{fill:url(#linear-gradient-5);}.cls-17{fill:url(#linear-gradient-6);}.cls-18{fill:url(#linear-gradient-7);}.cls-19{fill:url(#linear-gradient-8);}.cls-20{fill:url(#linear-gradient-9);}.cls-21{fill:url(#linear-gradient-10);}.cls-22{fill:url(#linear-gradient-11);}.cls-23{fill:url(#linear-gradient-12);}.cls-24{fill:url(#linear-gradient-13);}.cls-25{fill:url(#linear-gradient-14);}.cls-26{fill:url(#linear-gradient-15);}.cls-27{fill:url(#linear-gradient-16);}.cls-28{fill:url(#linear-gradient-17);}.cls-29{fill:url(#linear-gradient-18);}.cls-30{fill:url(#linear-gradient-19);}.cls-31{fill:url(#linear-gradient-20);}.cls-32{fill:url(#linear-gradient-21);}.cls-33{fill:url(#linear-gradient-22);}.cls-34{fill:url(#linear-gradient-23);}.cls-35{fill:url(#linear-gradient-24);}.cls-36{fill:url(#linear-gradient-25);}.cls-37{fill:url(#linear-gradient-26);}.cls-38{fill:url(#linear-gradient-27);}.cls-39{fill:url(#linear-gradient-28);}.cls-40{fill:url(#linear-gradient-29);}.cls-41{fill:url(#linear-gradient-30);}.cls-42{fill:url(#linear-gradient-31);}.cls-43{fill:url(#linear-gradient-32);}.cls-44{fill:url(#linear-gradient-33);}.cls-45{fill:url(#linear-gradient-34);}.cls-46{fill:url(#linear-gradient-35);}.cls-47{fill:url(#linear-gradient-36);}.cls-48{fill:url(#linear-gradient-37);}.cls-49{fill:url(#linear-gradient-38);}.cls-50{fill:url(#linear-gradient-39);}.cls-51{fill:url(#linear-gradient-40);}.cls-52{fill:url(#linear-gradient-41);}.cls-53{fill:url(#linear-gradient-42);}.cls-54{fill:url(#linear-gradient-43);}.cls-55{fill:url(#linear-gradient-44);}.cls-56{fill:url(#linear-gradient-45);}.cls-57{fill:url(#linear-gradient-46);}.cls-58{fill:url(#linear-gradient-47);}.cls-59{fill:url(#linear-gradient-48);}.cls-60{fill:url(#linear-gradient-49);}.cls-61{fill:url(#linear-gradient-50);}.cls-62{fill:url(#linear-gradient-51);}.cls-63{fill:url(#linear-gradient-52);}.cls-64{fill:url(#linear-gradient-53);}.cls-65{fill:url(#linear-gradient-54);}.cls-66{fill:url(#linear-gradient-55);}.cls-67{fill:url(#linear-gradient-56);}.cls-68{fill:url(#linear-gradient-57);}.cls-69{fill:url(#linear-gradient-58);}.cls-70{fill:url(#linear-gradient-59);}.cls-71{fill:url(#linear-gradient-60);}.cls-72{fill:url(#linear-gradient-61);}.cls-73{fill:url(#linear-gradient-62);}.cls-74{fill:url(#linear-gradient-63);}.cls-75{fill:url(#linear-gradient-64);}.cls-76{fill:url(#linear-gradient-65);}.cls-77{fill:url(#linear-gradient-66);}.cls-78{fill:url(#linear-gradient-67);}.cls-79{fill:#eb5c20;}.cls-80{fill:#eb5c21;}.cls-81{opacity:0.27;}.cls-82{fill:#fcc5b6;}.cls-83{fill:#fcb19c;}.cls-84{fill:#1a1a1a;}.cls-85{opacity:0.2;}</style><linearGradient id="linear-gradient" x1="1226.33" y1="2066.01" x2="1814.32" y2="2066.01" gradientUnits="userSpaceOnUse"><stop offset="0" stop-color="#f95b12"/><stop offset="1"/></linearGradient><clipPath id="clip-path"><path class="cls-1" d="M2158.77,2910.81H871.6a112.3,112.3,0,0,1-112.17-112.16V113.22A112.29,112.29,0,0,1,871.6,1.06H2158.77a112.29,112.29,0,0,1,112.17,112.16V2798.65A112.3,112.3,0,0,1,2158.77,2910.81ZM871.6,35.9a77.41,77.41,0,0,0-77.32,77.32V2798.65A77.41,77.41,0,0,0,871.6,2876H2158.77a77.41,77.41,0,0,0,77.32-77.32V113.22a77.41,77.41,0,0,0-77.32-77.32Z"/></clipPath><clipPath id="clip-path-2"><circle class="cls-2" cx="1525.92" cy="688.7" r="458.8"/></clipPath><clipPath id="clip-path-3"><ellipse class="cls-3" cx="1525.92" cy="1257.44" rx="446.11" ry="473.6"/></clipPath><clipPath id="clip-path-4"><circle class="cls-4" cx="1520.63" cy="615.76" r="136.37" transform="translate(9.97 1255.6) rotate(-45)"/></clipPath><clipPath id="clip-path-5"><rect class="cls-5" x="1226.33" y="1965.84" width="587.99" height="200.35" rx="100.18"/></clipPath><linearGradient id="linear-gradient-3" x1="1810.83" y1="2020.3" x2="1814.32" y2="2020.3" xlink:href="#linear-gradient"/><linearGradient id="linear-gradient-4" x1="1801.74" y1="2066.01" x2="1814.32" y2="2066.01" xlink:href="#linear-gradient"/><linearGradient id="linear-gradient-5" x1="1792.65" y1="2066.01" x2="1808.16" y2="2066.01" xlink:href="#linear-gradient"/><linearGradient id="linear-gradient-6" x1="1783.56" y1="2066.01" x2="1799.07" y2="2066.01" xlink:href="#linear-gradient"/><linearGradient id="linear-gradient-7" x1="1774.48" y1="2066.01" x2="1789.98" y2="2066.01" xlink:href="#linear-gradient"/><linearGradient id="linear-gradient-8" x1="1765.39" y1="2066.01" x2="1780.9" y2="2066.01" xlink:href="#linear-gradient"/><linearGradient id="linear-gradient-9" x1="1756.3" y1="2066.01" x2="1771.81" y2="2066.01" xlink:href="#linear-gradient"/><linearGradient id="linear-gradient-10" x1="1747.21" y1="2066.01" x2="1762.72" y2="2066.01" xlink:href="#linear-gradient"/><linearGradient id="linear-gradient-11" x1="1738.12" y1="2066.01" x2="1753.63" y2="2066.01" xlink:href="#linear-gradient"/><linearGradient id="linear-gradient-12" x1="1729.03" y1="2066.01" x2="1744.54" y2="2066.01" xlink:href="#linear-gradient"/><linearGradient id="linear-gradient-13" x1="1719.95" y1="2066.01" x2="1735.46" y2="2066.01" xlink:href="#linear-gradient"/><linearGradient id="linear-gradient-14" x1="1710.86" y1="2066.01" x2="1726.37" y2="2066.01" xlink:href="#linear-gradient"/><linearGradient id="linear-gradient-15" x1="1701.77" y1="2066.01" x2="1717.28" y2="2066.01" xlink:href="#linear-gradient"/><linearGradient id="linear-gradient-16" x1="1692.68" y1="2066.01" x2="1708.19" y2="2066.01" xlink:href="#linear-gradient"/><linearGradient id="linear-gradient-17" x1="1683.59" y1="2066.01" x2="1699.1" y2="2066.01" xlink:href="#linear-gradient"/><linearGradient id="linear-gradient-18" x1="1674.51" y1="2066.01" x2="1690.02" y2="2066.01" xlink:href="#linear-gradient"/><linearGradient id="linear-gradient-19" x1="1665.42" y1="2066.01" x2="1680.93" y2="2066.01" xlink:href="#linear-gradient"/><linearGradient id="linear-gradient-20" x1="1656.33" y1="2066.01" x2="1671.84" y2="2066.01" xlink:href="#linear-gradient"/><linearGradient id="linear-gradient-21" x1="1647.24" y1="2066.01" x2="1662.75" y2="2066.01" xlink:href="#linear-gradient"/><linearGradient id="linear-gradient-22" x1="1638.15" y1="2066.01" x2="1653.66" y2="2066.01" xlink:href="#linear-gradient"/><linearGradient id="linear-gradient-23" x1="1629.07" y1="2066.01" x2="1644.58" y2="2066.01" xlink:href="#linear-gradient"/><linearGradient id="linear-gradient-24" x1="1619.98" y1="2066.01" x2="1635.49" y2="2066.01" xlink:href="#linear-gradient"/><linearGradient id="linear-gradient-25" x1="1610.89" y1="2066.01" x2="1626.4" y2="2066.01" xlink:href="#linear-gradient"/><linearGradient id="linear-gradient-26" x1="1601.8" y1="2066.01" x2="1617.31" y2="2066.01" xlink:href="#linear-gradient"/><linearGradient id="linear-gradient-27" x1="1592.71" y1="2066.01" x2="1608.22" y2="2066.01" xlink:href="#linear-gradient"/><linearGradient id="linear-gradient-28" x1="1583.63" y1="2066.01" x2="1599.14" y2="2066.01" xlink:href="#linear-gradient"/><linearGradient id="linear-gradient-29" x1="1574.54" y1="2066.01" x2="1590.05" y2="2066.01" xlink:href="#linear-gradient"/><linearGradient id="linear-gradient-30" x1="1565.45" y1="2066.01" x2="1580.96" y2="2066.01" xlink:href="#linear-gradient"/><linearGradient id="linear-gradient-31" x1="1556.36" y1="2066.01" x2="1571.87" y2="2066.01" xlink:href="#linear-gradient"/><linearGradient id="linear-gradient-32" x1="1547.27" y1="2066.01" x2="1562.78" y2="2066.01" xlink:href="#linear-gradient"/><linearGradient id="linear-gradient-33" x1="1538.19" y1="2066.01" x2="1553.7" y2="2066.01" xlink:href="#linear-gradient"/><linearGradient id="linear-gradient-34" x1="1529.1" y1="2066.01" x2="1544.61" y2="2066.01" xlink:href="#linear-gradient"/><linearGradient id="linear-gradient-35" x1="1520.01" y1="2066.01" x2="1535.52" y2="2066.01" xlink:href="#linear-gradient"/><linearGradient id="linear-gradient-36" x1="1510.92" y1="2066.01" x2="1526.43" y2="2066.01" xlink:href="#linear-gradient"/><linearGradient id="linear-gradient-37" x1="1501.83" y1="2066.01" x2="1517.34" y2="2066.01" xlink:href="#linear-gradient"/><linearGradient id="linear-gradient-38" x1="1492.75" y1="2066.01" x2="1508.26" y2="2066.01" xlink:href="#linear-gradient"/><linearGradient id="linear-gradient-39" x1="1483.66" y1="2066.01" x2="1499.17" y2="2066.01" xlink:href="#linear-gradient"/><linearGradient id="linear-gradient-40" x1="1474.57" y1="2066.01" x2="1490.08" y2="2066.01" xlink:href="#linear-gradient"/><linearGradient id="linear-gradient-41" x1="1465.48" y1="2066.01" x2="1480.99" y2="2066.01" xlink:href="#linear-gradient"/><linearGradient id="linear-gradient-42" x1="1456.39" y1="2066.01" x2="1471.9" y2="2066.01" xlink:href="#linear-gradient"/><linearGradient id="linear-gradient-43" x1="1447.31" y1="2066.01" x2="1462.82" y2="2066.01" xlink:href="#linear-gradient"/><linearGradient id="linear-gradient-44" x1="1438.22" y1="2066.01" x2="1453.73" y2="2066.01" xlink:href="#linear-gradient"/><linearGradient id="linear-gradient-45" x1="1429.13" y1="2066.01" x2="1444.64" y2="2066.01" xlink:href="#linear-gradient"/><linearGradient id="linear-gradient-46" x1="1420.04" y1="2066.01" x2="1435.55" y2="2066.01" xlink:href="#linear-gradient"/><linearGradient id="linear-gradient-47" x1="1410.95" y1="2066.01" x2="1426.46" y2="2066.01" xlink:href="#linear-gradient"/><linearGradient id="linear-gradient-48" x1="1401.87" y1="2066.01" x2="1417.38" y2="2066.01" xlink:href="#linear-gradient"/><linearGradient id="linear-gradient-49" x1="1392.78" y1="2066.01" x2="1408.29" y2="2066.01" xlink:href="#linear-gradient"/><linearGradient id="linear-gradient-50" x1="1383.69" y1="2066.01" x2="1399.2" y2="2066.01" xlink:href="#linear-gradient"/><linearGradient id="linear-gradient-51" x1="1374.6" y1="2066.01" x2="1390.11" y2="2066.01" xlink:href="#linear-gradient"/><linearGradient id="linear-gradient-52" x1="1365.51" y1="2066.01" x2="1381.02" y2="2066.01" xlink:href="#linear-gradient"/><linearGradient id="linear-gradient-53" x1="1356.43" y1="2066.01" x2="1371.94" y2="2066.01" xlink:href="#linear-gradient"/><linearGradient id="linear-gradient-54" x1="1347.34" y1="2066.01" x2="1362.85" y2="2066.01" xlink:href="#linear-gradient"/><linearGradient id="linear-gradient-55" x1="1338.25" y1="2066.01" x2="1353.76" y2="2066.01" xlink:href="#linear-gradient"/><linearGradient id="linear-gradient-56" x1="1329.16" y1="2066.01" x2="1344.67" y2="2066.01" xlink:href="#linear-gradient"/><linearGradient id="linear-gradient-57" x1="1320.07" y1="2066.01" x2="1335.58" y2="2066.01" xlink:href="#linear-gradient"/><linearGradient id="linear-gradient-58" x1="1310.99" y1="2066.01" x2="1326.49" y2="2066.01" xlink:href="#linear-gradient"/><linearGradient id="linear-gradient-59" x1="1301.9" y1="2066.01" x2="1317.41" y2="2066.01" xlink:href="#linear-gradient"/><linearGradient id="linear-gradient-60" x1="1292.81" y1="2066.01" x2="1308.32" y2="2066.01" xlink:href="#linear-gradient"/><linearGradient id="linear-gradient-61" x1="1283.72" y1="2066.01" x2="1299.23" y2="2066.01" xlink:href="#linear-gradient"/><linearGradient id="linear-gradient-62" x1="1274.63" y1="2066.01" x2="1290.14" y2="2066.01" xlink:href="#linear-gradient"/><linearGradient id="linear-gradient-63" x1="1265.55" y1="2066.01" x2="1281.05" y2="2066.01" xlink:href="#linear-gradient"/><linearGradient id="linear-gradient-64" x1="1256.46" y1="2066.01" x2="1271.97" y2="2066.01" xlink:href="#linear-gradient"/><linearGradient id="linear-gradient-65" x1="1247.37" y1="2066.01" x2="1262.88" y2="2066.01" xlink:href="#linear-gradient"/><linearGradient id="linear-gradient-66" x1="1238.28" y1="2066.01" x2="1253.79" y2="2066.01" xlink:href="#linear-gradient"/><linearGradient id="linear-gradient-67" x1="1226.33" y1="2066.01" x2="1244.7" y2="2066.01" xlink:href="#linear-gradient"/></defs><g id="Layer_2" data-name="Layer 2"><g id="Layer_1-2" data-name="Layer 1"><path class="cls-6" d="M331.62,2314.3s-33.72,30.72-98.8,105.49q-24.34-30.69-46.91-64.13L0,2079.92l261.39-17.83C585.82,2040,862.85,2183.36,1045,2467.73l184,287.23-371-13.38c-233.69-8.43-438-106.94-594-284.62Z"/><path class="cls-2" d="M1104.08,2675.11a2.12,2.12,0,0,1-1-.25L66.92,2114.18a2.1,2.1,0,1,1,2-3.69l1036.16,560.67a2.1,2.1,0,0,1-1,4Z"/><path class="cls-7" d="M810,2219.24s-25.93,37.53-91.31,112q33.66,20,69.83,37.89l298.15,147.31-17.33-261.42c-21.52-324.47-200.73-579.8-506.92-722.19L253.13,1389l62.94,365.9c39.64,230.46,164.62,419.73,361.6,550.56Z"/><path class="cls-2" d="M1045.43,2455.62a2.09,2.09,0,0,1-1.7-.86L349.35,1503a2.1,2.1,0,0,1,3.4-2.47l694.38,951.75a2.1,2.1,0,0,1-1.7,3.34Z"/><path class="cls-8" d="M2272,783.63h0a18,18,0,0,1-18-18V582.74a18,18,0,0,1,18-18h0a18,18,0,0,1,18,18V765.67A18,18,0,0,1,2272,783.63Z"/><path class="cls-8" d="M2272,1187.74h0a18,18,0,0,1-18-18V864.4a18,18,0,0,1,18-18h0a18,18,0,0,1,18,18v305.37A18,18,0,0,1,2272,1187.74Z"/><rect class="cls-6" x="776.86" y="18.48" width="1476.66" height="2874.91" rx="94.74"/><path class="cls-1" d="M2158.77,2910.81H871.6a112.3,112.3,0,0,1-112.17-112.16V113.22A112.29,112.29,0,0,1,871.6,1.06H2158.77a112.29,112.29,0,0,1,112.17,112.16V2798.65A112.3,112.3,0,0,1,2158.77,2910.81ZM871.6,35.9a77.41,77.41,0,0,0-77.32,77.32V2798.65A77.41,77.41,0,0,0,871.6,2876H2158.77a77.41,77.41,0,0,0,77.32-77.32V113.22a77.41,77.41,0,0,0-77.32-77.32Z"/><g class="cls-9"><polygon class="cls-1" points="794.28 2874.15 844.99 2875.97 794.28 2875.97 794.28 2874.15"/><polygon class="cls-1" points="794.28 2831.61 2029.17 2875.97 844.99 2875.97 794.28 2874.15 794.28 2831.61"/><polygon class="cls-1" points="794.28 2789.08 2236.09 2840.87 2236.09 2875.97 2029.17 2875.97 794.28 2831.61 794.28 2789.08"/><polygon class="cls-1" points="794.28 2746.55 2236.09 2798.34 2236.09 2840.87 794.28 2789.08 794.28 2746.55"/><polygon class="cls-1" points="794.28 2704.02 2236.09 2755.8 2236.09 2798.34 794.28 2746.55 794.28 2704.02"/><polygon class="cls-1" points="794.28 2661.49 2236.09 2713.27 2236.09 2755.8 794.28 2704.02 794.28 2661.49"/><polygon class="cls-1" points="794.28 2618.95 2236.09 2670.74 2236.09 2713.27 794.28 2661.49 794.28 2618.95"/><polygon class="cls-1" points="794.28 2576.42 2236.09 2628.21 2236.09 2670.74 794.28 2618.95 794.28 2576.42"/><polygon class="cls-1" points="794.28 2533.89 2236.09 2585.68 2236.09 2628.21 794.28 2576.42 794.28 2533.89"/><polygon class="cls-1" points="794.28 2491.36 2236.09 2543.14 2236.09 2585.68 794.28 2533.89 794.28 2491.36"/><polygon class="cls-1" points="794.28 2448.83 2236.09 2500.61 2236.09 2543.14 794.28 2491.36 794.28 2448.83"/><polygon class="cls-1" points="794.28 2406.3 2236.09 2458.08 2236.09 2500.61 794.28 2448.83 794.28 2406.3"/><polygon class="cls-1" points="794.28 2363.76 2236.09 2415.55 2236.09 2458.08 794.28 2406.3 794.28 2363.76"/><polygon class="cls-1" points="794.28 2321.23 2236.09 2373.02 2236.09 2415.55 794.28 2363.76 794.28 2321.23"/><polygon class="cls-1" points="794.28 2278.7 2236.09 2330.49 2236.09 2373.02 794.28 2321.23 794.28 2278.7"/><polygon class="cls-1" points="794.28 2236.17 2236.09 2287.95 2236.09 2330.49 794.28 2278.7 794.28 2236.17"/><polygon class="cls-1" points="794.28 2193.64 2236.09 2245.42 2236.09 2287.95 794.28 2236.17 794.28 2193.64"/><polygon class="cls-1" points="794.28 2151.11 2236.09 2202.89 2236.09 2245.42 794.28 2193.64 794.28 2151.11"/><polygon class="cls-1" points="794.28 2108.57 2236.09 2160.36 2236.09 2202.89 794.28 2151.11 794.28 2108.57"/><polygon class="cls-1" points="794.28 2066.04 2236.09 2117.83 2236.09 2160.36 794.28 2108.57 794.28 2066.04"/><polygon class="cls-1" points="794.28 2023.51 2236.09 2075.3 2236.09 2117.83 794.28 2066.04 794.28 2023.51"/><polygon class="cls-1" points="794.28 1980.98 2236.09 2032.76 2236.09 2075.3 794.28 2023.51 794.28 1980.98"/><polygon class="cls-1" points="794.28 1938.45 2236.09 1990.23 2236.09 2032.76 794.28 1980.98 794.28 1938.45"/><polygon class="cls-1" points="794.28 1895.91 2236.09 1947.7 2236.09 1990.23 794.28 1938.45 794.28 1895.91"/><polygon class="cls-1" points="794.28 1853.38 2236.09 1905.17 2236.09 1947.7 794.28 1895.91 794.28 1853.38"/><polygon class="cls-1" points="794.28 1810.85 2236.09 1862.63 2236.09 1905.17 794.28 1853.38 794.28 1810.85"/><polygon class="cls-1" points="794.28 1768.32 2236.09 1820.1 2236.09 1862.63 794.28 1810.85 794.28 1768.32"/><polygon class="cls-1" points="794.28 1725.79 2236.09 1777.57 2236.09 1820.1 794.28 1768.32 794.28 1725.79"/><polygon class="cls-1" points="794.28 1683.25 2236.09 1735.04 2236.09 1777.57 794.28 1725.79 794.28 1683.25"/><polygon class="cls-1" points="794.28 1640.72 2236.09 1692.51 2236.09 1735.04 794.28 1683.25 794.28 1640.72"/><polygon class="cls-1" points="794.28 1598.19 2236.09 1649.98 2236.09 1692.51 794.28 1640.72 794.28 1598.19"/><polygon class="cls-1" points="794.28 1555.66 2236.09 1607.44 2236.09 1649.98 794.28 1598.19 794.28 1555.66"/><polygon class="cls-1" points="794.28 1513.13 2236.09 1564.91 2236.09 1607.44 794.28 1555.66 794.28 1513.13"/><polygon class="cls-1" points="794.28 1470.6 2236.09 1522.38 2236.09 1564.91 794.28 1513.13 794.28 1470.6"/><polygon class="cls-1" points="794.28 1428.06 2236.09 1479.85 2236.09 1522.38 794.28 1470.6 794.28 1428.06"/><polygon class="cls-1" points="794.28 1385.53 2236.09 1437.32 2236.09 1479.85 794.28 1428.06 794.28 1385.53"/><polygon class="cls-1" points="794.28 1343 2236.09 1394.79 2236.09 1437.32 794.28 1385.53 794.28 1343"/><polygon class="cls-1" points="794.28 1300.47 2236.09 1352.25 2236.09 1394.79 794.28 1343 794.28 1300.47"/><polygon class="cls-1" points="794.28 1257.94 2236.09 1309.72 2236.09 1352.25 794.28 1300.47 794.28 1257.94"/><polygon class="cls-1" points="794.28 1215.4 2236.09 1267.19 2236.09 1309.72 794.28 1257.94 794.28 1215.4"/><polygon class="cls-1" points="794.28 1172.87 2236.09 1224.66 2236.09 1267.19 794.28 1215.4 794.28 1172.87"/><polygon class="cls-1" points="794.28 1130.34 2236.09 1182.13 2236.09 1224.66 794.28 1172.87 794.28 1130.34"/><polygon class="cls-1" points="794.28 1087.81 2236.09 1139.59 2236.09 1182.13 794.28 1130.34 794.28 1087.81"/><polygon class="cls-1" points="794.28 1045.28 2236.09 1097.06 2236.09 1139.59 794.28 1087.81 794.28 1045.28"/><polygon class="cls-1" points="794.28 1002.75 2236.09 1054.53 2236.09 1097.06 794.28 1045.28 794.28 1002.75"/><polygon class="cls-1" points="794.28 960.21 2236.09 1012 2236.09 1054.53 794.28 1002.75 794.28 960.21"/><polygon class="cls-1" points="794.28 917.68 2236.09 969.47 2236.09 1012 794.28 960.21 794.28 917.68"/><polygon class="cls-1" points="794.28 875.15 2236.09 926.93 2236.09 969.47 794.28 917.68 794.28 875.15"/><polygon class="cls-1" points="794.28 832.62 2236.09 884.4 2236.09 926.93 794.28 875.15 794.28 832.62"/><polygon class="cls-1" points="794.28 790.09 2236.09 841.87 2236.09 884.4 794.28 832.62 794.28 790.09"/><polygon class="cls-1" points="794.28 747.55 2236.09 799.34 2236.09 841.87 794.28 790.09 794.28 747.55"/><polygon class="cls-1" points="794.28 705.02 2236.09 756.81 2236.09 799.34 794.28 747.55 794.28 705.02"/><polygon class="cls-1" points="794.28 662.49 2236.09 714.27 2236.09 756.81 794.28 705.02 794.28 662.49"/><polygon class="cls-1" points="794.28 619.96 2236.09 671.74 2236.09 714.27 794.28 662.49 794.28 619.96"/><polygon class="cls-1" points="794.28 577.43 2236.09 629.21 2236.09 671.74 794.28 619.96 794.28 577.43"/><polygon class="cls-1" points="794.28 534.89 2236.09 586.68 2236.09 629.21 794.28 577.43 794.28 534.89"/><polygon class="cls-1" points="794.28 492.36 2236.09 544.15 2236.09 586.68 794.28 534.89 794.28 492.36"/><polygon class="cls-1" points="794.28 449.83 2236.09 501.62 2236.09 544.15 794.28 492.36 794.28 449.83"/><polygon class="cls-1" points="794.28 407.3 2236.09 459.08 2236.09 501.62 794.28 449.83 794.28 407.3"/><polygon class="cls-1" points="794.28 364.77 2236.09 416.55 2236.09 459.08 794.28 407.3 794.28 364.77"/><polygon class="cls-1" points="794.28 322.24 2236.09 374.02 2236.09 416.55 794.28 364.77 794.28 322.24"/><polygon class="cls-1" points="794.28 279.7 2236.09 331.49 2236.09 374.02 794.28 322.24 794.28 279.7"/><polygon class="cls-1" points="794.28 237.17 2236.09 288.96 2236.09 331.49 794.28 279.7 794.28 237.17"/><polygon class="cls-1" points="794.28 194.64 2236.09 246.43 2236.09 288.96 794.28 237.17 794.28 194.64"/><polygon class="cls-1" points="794.28 152.11 2236.09 203.89 2236.09 246.43 794.28 194.64 794.28 152.11"/><polygon class="cls-1" points="794.28 109.58 2236.09 161.36 2236.09 203.89 794.28 152.11 794.28 109.58"/><polygon class="cls-1" points="794.28 67.04 2236.09 118.83 2236.09 161.36 794.28 109.58 794.28 67.04"/><polygon class="cls-1" points="1111.39 35.9 2236.09 76.3 2236.09 118.83 794.28 67.04 794.28 35.9 1111.39 35.9"/><polygon class="cls-1" points="2236.09 76.3 1111.39 35.9 2236.09 35.9 2236.09 76.3"/><polygon class="cls-1" points="759.43 2872.89 1815.13 2910.81 759.43 2910.81 759.43 2872.89"/><polygon class="cls-1" points="759.43 2830.36 2270.94 2884.65 2270.94 2910.81 1815.13 2910.81 759.43 2872.89 759.43 2830.36"/><polygon class="cls-1" points="759.43 2787.83 2270.94 2842.12 2270.94 2884.65 759.43 2830.36 759.43 2787.83"/><polygon class="cls-1" points="759.43 2745.3 2270.94 2799.59 2270.94 2842.12 759.43 2787.83 759.43 2745.3"/><polygon class="cls-1" points="759.43 2702.77 2270.94 2757.06 2270.94 2799.59 759.43 2745.3 759.43 2702.77"/><polygon class="cls-1" points="759.43 2660.24 2270.94 2714.52 2270.94 2757.06 759.43 2702.77 759.43 2660.24"/><polygon class="cls-1" points="759.43 2617.7 2270.94 2671.99 2270.94 2714.52 759.43 2660.24 759.43 2617.7"/><polygon class="cls-1" points="759.43 2575.17 2270.94 2629.46 2270.94 2671.99 759.43 2617.7 759.43 2575.17"/><polygon class="cls-1" points="759.43 2532.64 2270.94 2586.93 2270.94 2629.46 759.43 2575.17 759.43 2532.64"/><polygon class="cls-1" points="759.43 2490.11 2270.94 2544.4 2270.94 2586.93 759.43 2532.64 759.43 2490.11"/><polygon class="cls-1" points="759.43 2447.58 2270.94 2501.86 2270.94 2544.4 759.43 2490.11 759.43 2447.58"/><polygon class="cls-1" points="759.43 2405.05 2270.94 2459.33 2270.94 2501.86 759.43 2447.58 759.43 2405.05"/><polygon class="cls-1" points="759.43 2362.51 2270.94 2416.8 2270.94 2459.33 759.43 2405.05 759.43 2362.51"/><polygon class="cls-1" points="759.43 2319.98 2270.94 2374.27 2270.94 2416.8 759.43 2362.51 759.43 2319.98"/><polygon class="cls-1" points="759.43 2277.45 2270.94 2331.74 2270.94 2374.27 759.43 2319.98 759.43 2277.45"/><polygon class="cls-1" points="759.43 2234.92 2270.94 2289.2 2270.94 2331.74 759.43 2277.45 759.43 2234.92"/><polygon class="cls-1" points="759.43 2192.39 2270.94 2246.67 2270.94 2289.2 759.43 2234.92 759.43 2192.39"/><polygon class="cls-1" points="759.43 2149.85 2270.94 2204.14 2270.94 2246.67 759.43 2192.39 759.43 2149.85"/><polygon class="cls-1" points="759.43 2107.32 2270.94 2161.61 2270.94 2204.14 759.43 2149.85 759.43 2107.32"/><polygon class="cls-1" points="759.43 2064.79 2270.94 2119.08 2270.94 2161.61 759.43 2107.32 759.43 2064.79"/><polygon class="cls-1" points="759.43 2022.26 2270.94 2076.55 2270.94 2119.08 759.43 2064.79 759.43 2022.26"/><polygon class="cls-1" points="759.43 1979.73 2270.94 2034.01 2270.94 2076.55 759.43 2022.26 759.43 1979.73"/><polygon class="cls-1" points="759.43 1937.19 2270.94 1991.48 2270.94 2034.01 759.43 1979.73 759.43 1937.19"/><polygon class="cls-1" points="759.43 1894.66 2270.94 1948.95 2270.94 1991.48 759.43 1937.19 759.43 1894.66"/><polygon class="cls-1" points="759.43 1852.13 2270.94 1906.42 2270.94 1948.95 759.43 1894.66 759.43 1852.13"/><polygon class="cls-1" points="759.43 1809.6 2270.94 1863.89 2270.94 1906.42 759.43 1852.13 759.43 1809.6"/><polygon class="cls-1" points="759.43 1767.07 2270.94 1821.36 2270.94 1863.89 759.43 1809.6 759.43 1767.07"/><polygon class="cls-1" points="759.43 1724.54 2270.94 1778.82 2270.94 1821.36 759.43 1767.07 759.43 1724.54"/><polygon class="cls-1" points="759.43 1682 2270.94 1736.29 2270.94 1778.82 759.43 1724.54 759.43 1682"/><polygon class="cls-1" points="759.43 1639.47 2270.94 1693.76 2270.94 1736.29 759.43 1682 759.43 1639.47"/><polygon class="cls-1" points="759.43 1596.94 2270.94 1651.23 2270.94 1693.76 759.43 1639.47 759.43 1596.94"/><polygon class="cls-1" points="759.43 1554.41 2270.94 1608.7 2270.94 1651.23 759.43 1596.94 759.43 1554.41"/><polygon class="cls-1" points="759.43 1511.88 2270.94 1566.16 2270.94 1608.7 759.43 1554.41 759.43 1511.88"/><polygon class="cls-1" points="759.43 1469.34 2270.94 1523.63 2270.94 1566.16 759.43 1511.88 759.43 1469.34"/><polygon class="cls-1" points="759.43 1426.81 2270.94 1481.1 2270.94 1523.63 759.43 1469.34 759.43 1426.81"/><polygon class="cls-1" points="759.43 1384.28 2270.94 1438.57 2270.94 1481.1 759.43 1426.81 759.43 1384.28"/><polygon class="cls-1" points="759.43 1341.75 2270.94 1396.04 2270.94 1438.57 759.43 1384.28 759.43 1341.75"/><polygon class="cls-1" points="759.43 1299.22 2270.94 1353.51 2270.94 1396.04 759.43 1341.75 759.43 1299.22"/><polygon class="cls-1" points="759.43 1256.68 2270.94 1310.97 2270.94 1353.51 759.43 1299.22 759.43 1256.68"/><polygon class="cls-1" points="759.43 1214.15 2270.94 1268.44 2270.94 1310.97 759.43 1256.68 759.43 1214.15"/><polygon class="cls-1" points="759.43 1171.62 2270.94 1225.91 2270.94 1268.44 759.43 1214.15 759.43 1171.62"/><polygon class="cls-1" points="759.43 1129.09 2270.94 1183.38 2270.94 1225.91 759.43 1171.62 759.43 1129.09"/><polygon class="cls-1" points="759.43 1086.56 2270.94 1140.85 2270.94 1183.38 759.43 1129.09 759.43 1086.56"/><polygon class="cls-1" points="759.43 1044.03 2270.94 1098.31 2270.94 1140.85 759.43 1086.56 759.43 1044.03"/><polygon class="cls-1" points="759.43 1001.49 2270.94 1055.78 2270.94 1098.31 759.43 1044.03 759.43 1001.49"/><polygon class="cls-1" points="759.43 958.96 2270.94 1013.25 2270.94 1055.78 759.43 1001.49 759.43 958.96"/><polygon class="cls-1" points="759.43 916.43 2270.94 970.72 2270.94 1013.25 759.43 958.96 759.43 916.43"/><polygon class="cls-1" points="759.43 873.9 2270.94 928.19 2270.94 970.72 759.43 916.43 759.43 873.9"/><polygon class="cls-1" points="759.43 831.37 2270.94 885.65 2270.94 928.19 759.43 873.9 759.43 831.37"/><polygon class="cls-1" points="759.43 788.83 2270.94 843.12 2270.94 885.65 759.43 831.37 759.43 788.83"/><polygon class="cls-1" points="759.43 746.3 2270.94 800.59 2270.94 843.12 759.43 788.83 759.43 746.3"/><polygon class="cls-1" points="759.43 703.77 2270.94 758.06 2270.94 800.59 759.43 746.3 759.43 703.77"/><polygon class="cls-1" points="759.43 661.24 2270.94 715.53 2270.94 758.06 759.43 703.77 759.43 661.24"/><polygon class="cls-1" points="759.43 618.71 2270.94 673 2270.94 715.53 759.43 661.24 759.43 618.71"/><polygon class="cls-1" points="759.43 576.17 2270.94 630.46 2270.94 673 759.43 618.71 759.43 576.17"/><polygon class="cls-1" points="759.43 533.64 2270.94 587.93 2270.94 630.46 759.43 576.17 759.43 533.64"/><polygon class="cls-1" points="759.43 491.11 2270.94 545.4 2270.94 587.93 759.43 533.64 759.43 491.11"/><polygon class="cls-1" points="759.43 448.58 2270.94 502.87 2270.94 545.4 759.43 491.11 759.43 448.58"/><polygon class="cls-1" points="759.43 406.05 2270.94 460.33 2270.94 502.87 759.43 448.58 759.43 406.05"/><polygon class="cls-1" points="759.43 363.51 2270.94 417.8 2270.94 460.33 759.43 406.05 759.43 363.51"/><polygon class="cls-1" points="759.43 320.98 2270.94 375.27 2270.94 417.8 759.43 363.51 759.43 320.98"/><polygon class="cls-1" points="759.43 278.45 2270.94 332.74 2270.94 375.27 759.43 320.98 759.43 278.45"/><polygon class="cls-1" points="759.43 235.92 2270.94 290.21 2270.94 332.74 759.43 278.45 759.43 235.92"/><polygon class="cls-1" points="759.43 193.39 2270.94 247.68 2270.94 290.21 759.43 235.92 759.43 193.39"/><polygon class="cls-1" points="759.43 150.86 2270.94 205.14 2270.94 247.68 759.43 193.39 759.43 150.86"/><polygon class="cls-1" points="759.43 108.32 2270.94 162.61 2270.94 205.14 759.43 150.86 759.43 108.32"/><polygon class="cls-1" points="759.43 65.79 2270.94 120.08 2270.94 162.61 759.43 108.32 759.43 65.79"/><polygon class="cls-1" points="759.43 23.26 2270.94 77.55 2270.94 120.08 759.43 65.79 759.43 23.26"/><polygon class="cls-1" points="1325.43 1.06 2270.94 35.02 2270.94 77.55 759.43 23.26 759.43 1.06 1325.43 1.06"/><polygon class="cls-1" points="2270.94 35.02 1325.43 1.06 2270.94 1.06 2270.94 35.02"/></g><path class="cls-1" d="M2158.78,2911.87H871.6a113.35,113.35,0,0,1-113.22-113.22V113.22A113.35,113.35,0,0,1,871.6,0H2158.78A113.35,113.35,0,0,1,2272,113.22V2798.65A113.35,113.35,0,0,1,2158.78,2911.87ZM871.6,2.12a111.23,111.23,0,0,0-111.11,111.1V2798.65a111.23,111.23,0,0,0,111.11,111.1H2158.78a111.23,111.23,0,0,0,111.1-111.1V113.22a111.23,111.23,0,0,0-111.1-111.1ZM2158.78,2877H871.6a78.47,78.47,0,0,1-78.38-78.37V113.22A78.47,78.47,0,0,1,871.6,34.84H2158.78a78.47,78.47,0,0,1,78.37,78.38V2798.65A78.46,78.46,0,0,1,2158.78,2877ZM871.6,37a76.35,76.35,0,0,0-76.27,76.26V2798.65a76.35,76.35,0,0,0,76.27,76.26H2158.78a76.34,76.34,0,0,0,76.25-76.26V113.22A76.34,76.34,0,0,0,2158.78,37Z"/><circle class="cls-2" cx="1525.92" cy="688.7" r="458.8"/><g class="cls-10"><ellipse class="cls-3" cx="1525.92" cy="1257.44" rx="446.11" ry="473.6"/><g class="cls-11"><polygon class="cls-3" points="1130.55 783.85 1079.81 784.72 1079.81 783.85 1130.55 783.85"/><polygon class="cls-3" points="1675.53 783.85 1079.81 794.07 1079.81 784.72 1130.55 783.85 1675.53 783.85"/><polygon class="cls-3" points="1972.03 788.11 1079.81 803.43 1079.81 794.07 1675.53 783.85 1972.03 783.85 1972.03 788.11"/><polygon class="cls-3" points="1972.03 797.47 1079.81 812.79 1079.81 803.43 1972.03 788.11 1972.03 797.47"/><polygon class="cls-3" points="1972.03 806.82 1079.81 822.14 1079.81 812.79 1972.03 797.47 1972.03 806.82"/><polygon class="cls-3" points="1972.03 816.18 1079.81 831.5 1079.81 822.14 1972.03 806.82 1972.03 816.18"/><polygon class="cls-3" points="1972.03 825.54 1079.81 840.85 1079.81 831.5 1972.03 816.18 1972.03 825.54"/><polygon class="cls-3" points="1972.03 834.89 1079.81 850.21 1079.81 840.85 1972.03 825.54 1972.03 834.89"/><polygon class="cls-3" points="1972.03 844.25 1079.81 859.57 1079.81 850.21 1972.03 834.89 1972.03 844.25"/><polygon class="cls-3" points="1972.03 853.6 1079.81 868.92 1079.81 859.57 1972.03 844.25 1972.03 853.6"/><polygon class="cls-3" points="1972.03 862.96 1079.81 878.28 1079.81 868.92 1972.03 853.6 1972.03 862.96"/><polygon class="cls-3" points="1972.03 872.32 1079.81 887.63 1079.81 878.28 1972.03 862.96 1972.03 872.32"/><polygon class="cls-3" points="1972.03 881.67 1079.81 896.99 1079.81 887.63 1972.03 872.32 1972.03 881.67"/><polygon class="cls-3" points="1972.03 891.03 1079.81 906.35 1079.81 896.99 1972.03 881.67 1972.03 891.03"/><polygon class="cls-3" points="1972.03 900.38 1079.81 915.7 1079.81 906.35 1972.03 891.03 1972.03 900.38"/><polygon class="cls-3" points="1972.03 909.74 1079.81 925.06 1079.81 915.7 1972.03 900.38 1972.03 909.74"/><polygon class="cls-3" points="1972.03 919.1 1079.81 934.41 1079.81 925.06 1972.03 909.74 1972.03 919.1"/><polygon class="cls-3" points="1972.03 928.45 1079.81 943.77 1079.81 934.41 1972.03 919.1 1972.03 928.45"/><polygon class="cls-3" points="1972.03 937.81 1079.81 953.13 1079.81 943.77 1972.03 928.45 1972.03 937.81"/><polygon class="cls-3" points="1972.03 947.16 1079.81 962.48 1079.81 953.13 1972.03 937.81 1972.03 947.16"/><polygon class="cls-3" points="1972.03 956.52 1079.81 971.84 1079.81 962.48 1972.03 947.16 1972.03 956.52"/><polygon class="cls-3" points="1972.03 965.88 1079.81 981.19 1079.81 971.84 1972.03 956.52 1972.03 965.88"/><polygon class="cls-3" points="1972.03 975.23 1079.81 990.55 1079.81 981.19 1972.03 965.88 1972.03 975.23"/><polygon class="cls-3" points="1972.03 984.59 1079.81 999.9 1079.81 990.55 1972.03 975.23 1972.03 984.59"/><polygon class="cls-3" points="1972.03 993.94 1079.81 1009.26 1079.81 999.9 1972.03 984.59 1972.03 993.94"/><polygon class="cls-3" points="1972.03 1003.3 1079.81 1018.62 1079.81 1009.26 1972.03 993.94 1972.03 1003.3"/><polygon class="cls-3" points="1972.03 1012.65 1079.81 1027.97 1079.81 1018.62 1972.03 1003.3 1972.03 1012.65"/><polygon class="cls-3" points="1972.03 1022.01 1079.81 1037.33 1079.81 1027.97 1972.03 1012.65 1972.03 1022.01"/><polygon class="cls-3" points="1972.03 1031.37 1079.81 1046.68 1079.81 1037.33 1972.03 1022.01 1972.03 1031.37"/><polygon class="cls-3" points="1972.03 1040.72 1079.81 1056.04 1079.81 1046.68 1972.03 1031.37 1972.03 1040.72"/><polygon class="cls-3" points="1972.03 1050.08 1079.81 1065.4 1079.81 1056.04 1972.03 1040.72 1972.03 1050.08"/><polygon class="cls-3" points="1972.03 1059.43 1079.81 1074.75 1079.81 1065.4 1972.03 1050.08 1972.03 1059.43"/><polygon class="cls-3" points="1972.03 1068.79 1079.81 1084.11 1079.81 1074.75 1972.03 1059.43 1972.03 1068.79"/><polygon class="cls-3" points="1972.03 1078.15 1079.81 1093.46 1079.81 1084.11 1972.03 1068.79 1972.03 1078.15"/><polygon class="cls-3" points="1972.03 1087.5 1079.81 1102.82 1079.81 1093.46 1972.03 1078.15 1972.03 1087.5"/><polygon class="cls-3" points="1972.03 1096.86 1079.81 1112.18 1079.81 1102.82 1972.03 1087.5 1972.03 1096.86"/><polygon class="cls-3" points="1972.03 1106.21 1079.81 1121.53 1079.81 1112.18 1972.03 1096.86 1972.03 1106.21"/><polygon class="cls-3" points="1972.03 1115.57 1079.81 1130.89 1079.81 1121.53 1972.03 1106.21 1972.03 1115.57"/><polygon class="cls-3" points="1972.03 1124.93 1079.81 1140.24 1079.81 1130.89 1972.03 1115.57 1972.03 1124.93"/><polygon class="cls-3" points="1972.03 1134.28 1079.81 1149.6 1079.81 1140.24 1972.03 1124.93 1972.03 1134.28"/><polygon class="cls-3" points="1972.03 1143.64 1079.81 1158.95 1079.81 1149.6 1972.03 1134.28 1972.03 1143.64"/><polygon class="cls-3" points="1972.03 1152.99 1079.81 1168.31 1079.81 1158.95 1972.03 1143.64 1972.03 1152.99"/><polygon class="cls-3" points="1972.03 1162.35 1079.81 1177.67 1079.81 1168.31 1972.03 1152.99 1972.03 1162.35"/><polygon class="cls-3" points="1972.03 1171.71 1079.81 1187.02 1079.81 1177.67 1972.03 1162.35 1972.03 1171.71"/><polygon class="cls-3" points="1972.03 1181.06 1079.81 1196.38 1079.81 1187.02 1972.03 1171.71 1972.03 1181.06"/><polygon class="cls-3" points="1972.03 1190.42 1079.81 1205.73 1079.81 1196.38 1972.03 1181.06 1972.03 1190.42"/><polygon class="cls-3" points="1972.03 1199.77 1079.81 1215.09 1079.81 1205.73 1972.03 1190.42 1972.03 1199.77"/><polygon class="cls-3" points="1079.81 1215.09 1972.03 1199.77 1972.03 1731.04 1079.81 1731.04 1079.81 1215.09"/></g><circle class="cls-4" cx="1520.63" cy="615.76" r="136.37" transform="translate(9.97 1255.6) rotate(-45)"/><g class="cls-12"><polygon class="cls-4" points="1425.6 479.39 1384.26 480.1 1384.26 479.39 1425.6 479.39"/><polygon class="cls-4" points="1657 484.77 1384.26 489.46 1384.26 480.1 1425.6 479.39 1657 479.39 1657 484.77"/><polygon class="cls-4" points="1657 494.13 1384.26 498.81 1384.26 489.46 1657 484.77 1657 494.13"/><polygon class="cls-4" points="1657 503.49 1384.26 508.17 1384.26 498.81 1657 494.13 1657 503.49"/><polygon class="cls-4" points="1657 512.84 1384.26 517.52 1384.26 508.17 1657 503.49 1657 512.84"/><polygon class="cls-4" points="1657 522.2 1384.26 526.88 1384.26 517.52 1657 512.84 1657 522.2"/><polygon class="cls-4" points="1657 531.55 1384.26 536.24 1384.26 526.88 1657 522.2 1657 531.55"/><polygon class="cls-4" points="1657 540.91 1384.26 545.59 1384.26 536.24 1657 531.55 1657 540.91"/><polygon class="cls-4" points="1657 550.27 1384.26 554.95 1384.26 545.59 1657 540.91 1657 550.27"/><polygon class="cls-4" points="1657 559.62 1384.26 564.3 1384.26 554.95 1657 550.27 1657 559.62"/><polygon class="cls-4" points="1657 568.98 1384.26 573.66 1384.26 564.3 1657 559.62 1657 568.98"/><polygon class="cls-4" points="1657 578.33 1384.26 583.02 1384.26 573.66 1657 568.98 1657 578.33"/><polygon class="cls-4" points="1657 587.69 1384.26 592.37 1384.26 583.02 1657 578.33 1657 587.69"/><polygon class="cls-4" points="1657 597.05 1384.26 601.73 1384.26 592.37 1657 587.69 1657 597.05"/><polygon class="cls-4" points="1657 606.4 1384.26 611.08 1384.26 601.73 1657 597.05 1657 606.4"/><polygon class="cls-4" points="1657 615.76 1384.26 620.44 1384.26 611.08 1657 606.4 1657 615.76"/><polygon class="cls-4" points="1657 625.11 1384.26 629.8 1384.26 620.44 1657 615.76 1657 625.11"/><polygon class="cls-4" points="1657 634.47 1384.26 639.15 1384.26 629.8 1657 625.11 1657 634.47"/><polygon class="cls-4" points="1657 643.83 1384.26 648.51 1384.26 639.15 1657 634.47 1657 643.83"/><polygon class="cls-4" points="1657 653.18 1384.26 657.86 1384.26 648.51 1657 643.83 1657 653.18"/><polygon class="cls-4" points="1657 662.54 1384.26 667.22 1384.26 657.86 1657 653.18 1657 662.54"/><polygon class="cls-4" points="1657 671.89 1384.26 676.58 1384.26 667.22 1657 662.54 1657 671.89"/><polygon class="cls-4" points="1657 681.25 1384.26 685.93 1384.26 676.58 1657 671.89 1657 681.25"/><polygon class="cls-4" points="1657 690.61 1384.26 695.29 1384.26 685.93 1657 681.25 1657 690.61"/><polygon class="cls-4" points="1657 699.96 1384.26 704.64 1384.26 695.29 1657 690.61 1657 699.96"/><polygon class="cls-4" points="1657 709.32 1384.26 714 1384.26 704.64 1657 699.96 1657 709.32"/><polygon class="cls-4" points="1657 718.67 1384.26 723.36 1384.26 714 1657 709.32 1657 718.67"/><polygon class="cls-4" points="1657 728.03 1384.26 732.71 1384.26 723.36 1657 718.67 1657 728.03"/><polygon class="cls-4" points="1657 737.38 1384.26 742.07 1384.26 732.71 1657 728.03 1657 737.38"/><polygon class="cls-4" points="1657 746.74 1384.26 751.42 1384.26 742.07 1657 737.38 1657 746.74"/><polygon class="cls-4" points="1384.26 751.42 1657 746.74 1657 752.13 1384.26 752.13 1384.26 751.42"/></g></g><rect class="cls-5" x="1226.33" y="1965.84" width="587.99" height="200.35" rx="100.18"/><g class="cls-13"><polygon class="cls-14" points="1814.32 2074.76 1810.83 1965.84 1814.32 1965.84 1814.32 2074.76"/><polygon class="cls-15" points="1808.16 2166.19 1801.74 1965.84 1810.83 1965.84 1814.32 2074.76 1814.32 2166.19 1808.16 2166.19"/><polygon class="cls-16" points="1799.07 2166.19 1792.65 1965.84 1801.74 1965.84 1808.16 2166.19 1799.07 2166.19"/><polygon class="cls-17" points="1789.98 2166.19 1783.56 1965.84 1792.65 1965.84 1799.07 2166.19 1789.98 2166.19"/><polygon class="cls-18" points="1780.9 2166.19 1774.47 1965.84 1783.56 1965.84 1789.98 2166.19 1780.9 2166.19"/><polygon class="cls-19" points="1771.81 2166.19 1765.39 1965.84 1774.47 1965.84 1780.9 2166.19 1771.81 2166.19"/><polygon class="cls-20" points="1762.72 2166.19 1756.3 1965.84 1765.39 1965.84 1771.81 2166.19 1762.72 2166.19"/><polygon class="cls-21" points="1753.63 2166.19 1747.21 1965.84 1756.3 1965.84 1762.72 2166.19 1753.63 2166.19"/><polygon class="cls-22" points="1744.54 2166.19 1738.12 1965.84 1747.21 1965.84 1753.63 2166.19 1744.54 2166.19"/><polygon class="cls-23" points="1735.46 2166.19 1729.04 1965.84 1738.12 1965.84 1744.54 2166.19 1735.46 2166.19"/><polygon class="cls-24" points="1726.37 2166.19 1719.95 1965.84 1729.04 1965.84 1735.46 2166.19 1726.37 2166.19"/><polygon class="cls-25" points="1717.28 2166.19 1710.86 1965.84 1719.95 1965.84 1726.37 2166.19 1717.28 2166.19"/><polygon class="cls-26" points="1708.19 2166.19 1701.77 1965.84 1710.86 1965.84 1717.28 2166.19 1708.19 2166.19"/><polygon class="cls-27" points="1699.1 2166.19 1692.68 1965.84 1701.77 1965.84 1708.19 2166.19 1699.1 2166.19"/><polygon class="cls-28" points="1690.02 2166.19 1683.6 1965.84 1692.68 1965.84 1699.1 2166.19 1690.02 2166.19"/><polygon class="cls-29" points="1680.93 2166.19 1674.51 1965.84 1683.6 1965.84 1690.02 2166.19 1680.93 2166.19"/><polygon class="cls-30" points="1671.84 2166.19 1665.42 1965.84 1674.51 1965.84 1680.93 2166.19 1671.84 2166.19"/><polygon class="cls-31" points="1662.75 2166.19 1656.33 1965.84 1665.42 1965.84 1671.84 2166.19 1662.75 2166.19"/><polygon class="cls-32" points="1653.66 2166.19 1647.24 1965.84 1656.33 1965.84 1662.75 2166.19 1653.66 2166.19"/><polygon class="cls-33" points="1644.58 2166.19 1638.15 1965.84 1647.24 1965.84 1653.66 2166.19 1644.58 2166.19"/><polygon class="cls-34" points="1635.49 2166.19 1629.07 1965.84 1638.15 1965.84 1644.58 2166.19 1635.49 2166.19"/><polygon class="cls-35" points="1626.4 2166.19 1619.98 1965.84 1629.07 1965.84 1635.49 2166.19 1626.4 2166.19"/><polygon class="cls-36" points="1617.31 2166.19 1610.89 1965.84 1619.98 1965.84 1626.4 2166.19 1617.31 2166.19"/><polygon class="cls-37" points="1608.22 2166.19 1601.8 1965.84 1610.89 1965.84 1617.31 2166.19 1608.22 2166.19"/><polygon class="cls-38" points="1599.14 2166.19 1592.71 1965.84 1601.8 1965.84 1608.22 2166.19 1599.14 2166.19"/><polygon class="cls-39" points="1590.05 2166.19 1583.63 1965.84 1592.71 1965.84 1599.14 2166.19 1590.05 2166.19"/><polygon class="cls-40" points="1580.96 2166.19 1574.54 1965.84 1583.63 1965.84 1590.05 2166.19 1580.96 2166.19"/><polygon class="cls-41" points="1571.87 2166.19 1565.45 1965.84 1574.54 1965.84 1580.96 2166.19 1571.87 2166.19"/><polygon class="cls-42" points="1562.78 2166.19 1556.36 1965.84 1565.45 1965.84 1571.87 2166.19 1562.78 2166.19"/><polygon class="cls-43" points="1553.7 2166.19 1547.27 1965.84 1556.36 1965.84 1562.78 2166.19 1553.7 2166.19"/><polygon class="cls-44" points="1544.61 2166.19 1538.19 1965.84 1547.27 1965.84 1553.7 2166.19 1544.61 2166.19"/><polygon class="cls-45" points="1535.52 2166.19 1529.1 1965.84 1538.19 1965.84 1544.61 2166.19 1535.52 2166.19"/><polygon class="cls-46" points="1526.43 2166.19 1520.01 1965.84 1529.1 1965.84 1535.52 2166.19 1526.43 2166.19"/><polygon class="cls-47" points="1517.34 2166.19 1510.92 1965.84 1520.01 1965.84 1526.43 2166.19 1517.34 2166.19"/><polygon class="cls-48" points="1508.26 2166.19 1501.83 1965.84 1510.92 1965.84 1517.34 2166.19 1508.26 2166.19"/><polygon class="cls-49" points="1499.17 2166.19 1492.75 1965.84 1501.83 1965.84 1508.26 2166.19 1499.17 2166.19"/><polygon class="cls-50" points="1490.08 2166.19 1483.66 1965.84 1492.75 1965.84 1499.17 2166.19 1490.08 2166.19"/><polygon class="cls-51" points="1480.99 2166.19 1474.57 1965.84 1483.66 1965.84 1490.08 2166.19 1480.99 2166.19"/><polygon class="cls-52" points="1471.9 2166.19 1465.48 1965.84 1474.57 1965.84 1480.99 2166.19 1471.9 2166.19"/><polygon class="cls-53" points="1462.82 2166.19 1456.39 1965.84 1465.48 1965.84 1471.9 2166.19 1462.82 2166.19"/><polygon class="cls-54" points="1453.73 2166.19 1447.31 1965.84 1456.39 1965.84 1462.82 2166.19 1453.73 2166.19"/><polygon class="cls-55" points="1444.64 2166.19 1438.22 1965.84 1447.31 1965.84 1453.73 2166.19 1444.64 2166.19"/><polygon class="cls-56" points="1435.55 2166.19 1429.13 1965.84 1438.22 1965.84 1444.64 2166.19 1435.55 2166.19"/><polygon class="cls-57" points="1426.46 2166.19 1420.04 1965.84 1429.13 1965.84 1435.55 2166.19 1426.46 2166.19"/><polygon class="cls-58" points="1417.38 2166.19 1410.95 1965.84 1420.04 1965.84 1426.46 2166.19 1417.38 2166.19"/><polygon class="cls-59" points="1408.29 2166.19 1401.87 1965.84 1410.95 1965.84 1417.38 2166.19 1408.29 2166.19"/><polygon class="cls-60" points="1399.2 2166.19 1392.78 1965.84 1401.87 1965.84 1408.29 2166.19 1399.2 2166.19"/><polygon class="cls-61" points="1390.11 2166.19 1383.69 1965.84 1392.78 1965.84 1399.2 2166.19 1390.11 2166.19"/><polygon class="cls-62" points="1381.02 2166.19 1374.6 1965.84 1383.69 1965.84 1390.11 2166.19 1381.02 2166.19"/><polygon class="cls-63" points="1371.93 2166.19 1365.51 1965.84 1374.6 1965.84 1381.02 2166.19 1371.93 2166.19"/><polygon class="cls-64" points="1362.85 2166.19 1356.42 1965.84 1365.51 1965.84 1371.93 2166.19 1362.85 2166.19"/><polygon class="cls-65" points="1353.76 2166.19 1347.34 1965.84 1356.42 1965.84 1362.85 2166.19 1353.76 2166.19"/><polygon class="cls-66" points="1344.67 2166.19 1338.25 1965.84 1347.34 1965.84 1353.76 2166.19 1344.67 2166.19"/><polygon class="cls-67" points="1335.58 2166.19 1329.16 1965.84 1338.25 1965.84 1344.67 2166.19 1335.58 2166.19"/><polygon class="cls-68" points="1326.49 2166.19 1320.07 1965.84 1329.16 1965.84 1335.58 2166.19 1326.49 2166.19"/><polygon class="cls-69" points="1317.41 2166.19 1310.98 1965.84 1320.07 1965.84 1326.49 2166.19 1317.41 2166.19"/><polygon class="cls-70" points="1308.32 2166.19 1301.9 1965.84 1310.98 1965.84 1317.41 2166.19 1308.32 2166.19"/><polygon class="cls-71" points="1299.23 2166.19 1292.81 1965.84 1301.9 1965.84 1308.32 2166.19 1299.23 2166.19"/><polygon class="cls-72" points="1290.14 2166.19 1283.72 1965.84 1292.81 1965.84 1299.23 2166.19 1290.14 2166.19"/><polygon class="cls-73" points="1281.06 2166.19 1274.63 1965.84 1283.72 1965.84 1290.14 2166.19 1281.06 2166.19"/><polygon class="cls-74" points="1271.97 2166.19 1265.55 1965.84 1274.63 1965.84 1281.06 2166.19 1271.97 2166.19"/><polygon class="cls-75" points="1262.88 2166.19 1256.46 1965.84 1265.55 1965.84 1271.97 2166.19 1262.88 2166.19"/><polygon class="cls-76" points="1253.79 2166.19 1247.37 1965.84 1256.46 1965.84 1262.88 2166.19 1253.79 2166.19"/><polygon class="cls-77" points="1244.7 2166.19 1238.28 1965.84 1247.37 1965.84 1253.79 2166.19 1244.7 2166.19"/><polygon class="cls-78" points="1238.28 1965.84 1244.7 2166.19 1226.33 2166.19 1226.33 1965.84 1238.28 1965.84"/></g><rect class="cls-2" x="864.15" y="1346.24" width="1310.85" height="219.88" rx="50.74"/><rect class="cls-2" x="864.15" y="1629.56" width="1310.85" height="219.88" rx="50.74"/><circle class="cls-3" cx="971.98" cy="1741.61" r="29.6" transform="translate(-901.83 2424.84) rotate(-80.87)"/><circle class="cls-79" cx="1081.92" cy="1741.61" r="29.6" transform="translate(-861.68 2394.45) rotate(-76.72)"/><circle class="cls-79" cx="1191.86" cy="1741.61" r="29.6" transform="translate(-882.42 1352.88) rotate(-45)"/><circle class="cls-79" cx="1301.8" cy="1741.61" r="29.6" transform="translate(-625.85 2747.63) rotate(-80.78)"/><circle class="cls-79" cx="1411.75" cy="1741.61" r="29.6" transform="translate(-607.63 2715.45) rotate(-76.72)"/><circle class="cls-79" cx="1521.69" cy="1741.61" r="29.6" transform="translate(-785.81 1586.1) rotate(-45)"/><circle class="cls-3" cx="1631.63" cy="1741.61" r="29.6" transform="translate(-438.26 2929.46) rotate(-76.72)"/><rect class="cls-80" x="942.38" y="1430.81" width="589.88" height="50.74" rx="25.37"/><rect class="cls-80" x="1593.57" y="1430.81" width="348.86" height="50.74" rx="25.37"/><g class="cls-81"><path class="cls-2" d="M2253.52,933.68,776.86,2410.34v388.31a94.74,94.74,0,0,0,94.74,94.74h390.78l991.14-991.13Z"/><path class="cls-2" d="M2253.52,933.68,776.86,2410.34v388.31a94.74,94.74,0,0,0,94.74,94.74h390.78l991.14-991.13Z"/><path class="cls-2" d="M2158.77,18.48H1593.69L776.86,835.31v740.43L2252.58,100A94.75,94.75,0,0,0,2158.77,18.48Z"/><path class="cls-2" d="M2158.77,18.48H1593.69L776.86,835.31v740.43L2252.58,100A94.75,94.75,0,0,0,2158.77,18.48Z"/></g><path class="cls-2" d="M1871.55,2446.94c16.56,4.51,83.77-3.21,157-19.59,30.81,35.81,103.19,90.56,259.26,94.52,233.34,6,217.84-14.84,217.84-14.84,32.06-18.18,79-116.42,121.47-220.61,31.18,28.6,117.2,105.93,146.7,116.44,36.29,13,106.31,15.56,132.23-36.28S2888,2229.14,2888,2229.14s-54.47-137.42-124.47-256.68c-27.6-47-48.37-71.91-63.38-84.76a49.55,49.55,0,0,0-21.91-14.31l-180.62-61.26-287.18,22.41a49,49,0,0,0-29.17,12.57h0c-17.93,5.53-48.76,23.88-99.62,76.08-98.53,101.13-225.58,318.92-243.73,399.3S1843,2439.17,1871.55,2446.94Z"/><path class="cls-3" d="M2526.21,2489.44a1.94,1.94,0,0,1-1.18-.41,1.89,1.89,0,0,1-.3-2.65c25.75-32.46,59.62-100,100.68-200.68l1-2.51,2,1.84c24.68,22.62,86.18,78,124.22,103.76a1.89,1.89,0,0,1-2.12,3.13c-37.26-25.2-96.73-78.56-122.65-102.28-40.73,99.65-74.43,166.62-100.19,199.08A1.91,1.91,0,0,1,2526.21,2489.44Z"/><path class="cls-3" d="M2899.27,2379.61a1.88,1.88,0,0,1-1.52-3,73.93,73.93,0,0,0,6.65-10.87c25.2-50.42-17.7-134.88-18.13-135.73-.62-1.54-55.29-138.82-124.42-256.58-23.74-40.48-44.93-68.84-63-84.29l-.18-.18a47.84,47.84,0,0,0-21.08-13.77l-73.68-25a1.88,1.88,0,0,1,1.21-3.57l73.65,25a51.53,51.53,0,0,1,22.64,14.75c18.34,15.74,39.76,44.39,63.68,85.16,69.27,118,124,255.56,124.59,256.93,1.74,3.36,44.13,86.86,18.08,139a77.33,77.33,0,0,1-7,11.42A1.89,1.89,0,0,1,2899.27,2379.61Z"/><path class="cls-8" d="M2685.7,2763.27c7.78,0,36.3-7.78,153-15.56s186.68,10.37,186.68,10.37,38.89,15.56,38.89,54.45-23.33,64.82-49.26,70-168.54,15.56-210,10.37-129.64-25.93-153-49.26S2685.7,2763.27,2685.7,2763.27Z"/><path class="cls-8" d="M2578,2215.49H2476.87c-14.32,0-22.47-11.12-18.21-24.85l71-228.6c4.27-13.72,19.33-24.85,33.65-24.85h101.12c14.32,0,22.47,11.13,18.21,24.85l-71,228.6C2607.37,2204.37,2592.31,2215.49,2578,2215.49Z"/><path class="cls-3" d="M2195.66,2491l311.13,15.56s217.8-95.93,290.4-108.9,119.27-7.78,153,41.49,20.74,137.42-38.89,191.87-199.65,121.86-199.65,121.86-215.21,85.56-293,101.12-88.16,15.56-88.16,15.56-25.93,10.37-36.3-114.09-51.85-83-51.85-83S2195.66,2483.25,2195.66,2491Z"/><path class="cls-3" d="M2159.36,2874.76s-163.35-64.82-225.58-171.12-64.82-178.91-46.67-230.77,119.27-64.82,119.27-64.82,49.26-7.78,158.16,41.49,420,233.35,420,233.35L2639,2716.6s15.56,36.3-23.34,88.16-83,46.67-83,46.67L2302,2778.83l-49.26,25.93L2221.58,2867Z"/><path class="cls-8" d="M2273.44,2792s-51.86-15.73-140-15.73-165.94,5.24-186.69,23.59-33.7,49.78-20.74,73.36,38.51,51.77,119.27,52.4c98.73.78,134.83,2.62,210-26.2s59.64-81.22,59.64-81.22Z"/><path class="cls-82" d="M2302,2773.64l-56.18,13.83s-11.23,32.84,6.92,58.77,28.52,36.3,28.52,36.3l77.78-18.15s-25.38-18.62-44.07-46.67C2294.18,2786.61,2302,2773.64,2302,2773.64Z"/><path class="cls-82" d="M2628.66,2703.64l116.67,62.22s20.75,31.12,7.78,57S2722,2861.8,2722,2861.8l-129.64-33.71s20.74-10.37,36.3-54.45S2628.66,2703.64,2628.66,2703.64Z"/><path class="cls-83" d="M2706.44,2156.55,2687.32,2062l-60.93-28.84-78.09-1.4a6.14,6.14,0,0,0-5.61,8.86h0a26.67,26.67,0,0,0,24,14.84l35.32-.1,38.36,12.2-57.47,7.67-36.21,22.33a18.44,18.44,0,0,0-6.66,24.21l8.73,16.73,3.08,26.74,13.34,14.67a31.48,31.48,0,0,0,28,9.94l9.5-1.44,20.84,30.4c13.88,10.36,42.37,28.14,59,23.24h0a44.67,44.67,0,0,0,30.15-55.71Z"/><path class="cls-82" d="M2351.23,2166.92l46.17-58.68,40.43-34.32a42.37,42.37,0,0,1,9.62-6.14l47.78-22,.1.87c2,16-6,32.7-20.5,42.63l-30.42,20.91,70.77-13.45,54.34-27c9.24-5.33,20.33-5,28,.91h0a33.44,33.44,0,0,1,13,27.41l-.38,22.78c-.25,15.34-7.51,30.49-19.82,41.37l-52.16,46.08a58.22,58.22,0,0,1-20,11.56l-144.13,42.3a30.12,30.12,0,0,1-32.75-11h0a57.91,57.91,0,0,1-1.94-65.9Z"/><path class="cls-84" d="M2473.31,2138.45a1.89,1.89,0,0,1-.44-3.72l41.68-10a86,86,0,0,0,25.76-10.66l54.52-37.85a1.89,1.89,0,0,1,2.15,3.1l-54.6,37.91a90.07,90.07,0,0,1-27,11.17l-41.67,10A2.12,2.12,0,0,1,2473.31,2138.45Z"/><path class="cls-84" d="M2483.56,2171.54a1.89,1.89,0,0,1-.52-3.7l36.25-10.4a86.54,86.54,0,0,0,21.72-9.81l59.94-44a1.89,1.89,0,1,1,2.23,3.05l-60,44a89.85,89.85,0,0,1-22.79,10.31l-36.26,10.41A1.86,1.86,0,0,1,2483.56,2171.54Z"/><path class="cls-84" d="M2492,2201.88a1.89,1.89,0,0,1-.61-3.67l34.31-11.79a86,86,0,0,0,26.12-14.86l53.08-44a1.89,1.89,0,1,1,2.41,2.9l-53.08,44a89.82,89.82,0,0,1-27.29,15.52l-34.33,11.79A1.86,1.86,0,0,1,2492,2201.88Z"/><path class="cls-82" d="M2385.94,1758.43l-30,78.19a82.43,82.43,0,0,0-5,38.28h0a78,78,0,0,0,84.18,69.53h0a44.32,44.32,0,0,0,36.16-24.87l59.22-122.45Z"/><path class="cls-2" d="M2480.87,2835.16a2.19,2.19,0,0,1-.36,0c-120.72-23.12-438.07-180.08-441.26-181.66a1.89,1.89,0,1,1,1.67-3.38c3.19,1.58,320.09,158.31,440.3,181.33a1.89,1.89,0,0,1-.35,3.74Z"/><path class="cls-2" d="M2615.69,2697.75a1.88,1.88,0,0,1-.91-.24l-350-191.87a1.89,1.89,0,0,1,1.82-3.31l350,191.87a1.89,1.89,0,0,1-.91,3.55Z"/><path class="cls-2" d="M2512,2627.74a1.89,1.89,0,0,1-.81-3.59L2723.78,2523a1.89,1.89,0,1,1,1.62,3.41l-212.61,101.12A2,2,0,0,1,2512,2627.74Z"/><path class="cls-2" d="M2429,2552.55a1.89,1.89,0,0,1-.64-3.67c35.77-12.77,90-41.1,90.51-41.38a1.89,1.89,0,0,1,1.76,3.34c-.55.29-55,28.74-91,41.6A1.94,1.94,0,0,1,2429,2552.55Z"/><path class="cls-84" d="M1949.34,2233.63a1.89,1.89,0,0,1-.39-3.74c1.84-.38,185.31-38.88,285.26-57l57.38-10.4h38.89a1.89,1.89,0,1,1,0,3.78h-38.72l-56.87,10.34c-99.9,18.16-283.32,56.64-285.16,57A1.78,1.78,0,0,1,1949.34,2233.63Z"/><path class="cls-84" d="M2107.5,2402.16a1.89,1.89,0,0,1-.45-3.72c91.84-22.34,216.27-83.59,224.73-87.79l25.65-38.47a1.89,1.89,0,0,1,3.14,2.09l-26.2,39.31-.45.23c-1.3.65-130.93,65.18-226,88.3A1.73,1.73,0,0,1,2107.5,2402.16Z"/><path class="cls-84" d="M2094.53,2202.52a1.87,1.87,0,0,1-1.16-.41,1.89,1.89,0,0,1-.32-2.65l85.56-108.9a1.9,1.9,0,0,1,2.66-.31,1.88,1.88,0,0,1,.31,2.65L2096,2201.79A1.88,1.88,0,0,1,2094.53,2202.52Z"/><path class="cls-84" d="M2862,2223.26a1.88,1.88,0,0,1-1-.31c-49.09-31.91-94.06-45.29-97.76-46.36h-43.81a1.89,1.89,0,1,1,0-3.78l44.58.07c.47.13,47.55,13.43,99.05,46.91a1.89,1.89,0,0,1,.55,2.61A1.87,1.87,0,0,1,2862,2223.26Z"/><path class="cls-84" d="M2652,2290.67a1.89,1.89,0,0,1-1.86-1.58l-7.78-46.67a1.89,1.89,0,0,1,3.73-.62l7.78,46.67a1.9,1.9,0,0,1-1.56,2.18Z"/><path class="cls-80" d="M2624.67,1735.81c7-12.29,10.84-26,14.66-39.65l5.61-20c2.21-7.85,4.43-15.92,3.69-24-.8-8.72-5.33-17.21-12.62-22.07s-17.32-5.65-24.93-1.3c-5.86,3.35-9.8,9.19-13.52,14.83l-15.68,23.75c-5.25,7.94-10.57,16-13.21,25.18-4.33,14.93-1.08,31,3.62,45.79,1.92,6,4.16,12.15,8.38,16.87C2596.75,1773.18,2616.67,1750,2624.67,1735.81Z"/><path class="cls-82" d="M2632.83,1602c-9.57-20.27-31.92-31.21-53.61-36.75a193,193,0,0,0-130.27,13c-14.26,6.86-27.89,15.71-37.8,28.06-19.17,23.9-21.82,57.16-36,84.17a26.29,26.29,0,0,0-11-4.21c-10.63-1.4-21.52,3.54-28.75,11.48s-11.09,18.51-12.41,29.17c-1.53,12.38.44,25.73,8.14,35.53,10.6,13.48,29.07,17.3,46,20.22-7.13,30.33,3.57,62.86,20.53,88,20,29.67,49.61,48.21,84.7,55.11,31.76,6.25,60.18-6.54,78.93-32.51,16.46-22.79,23.62-50.81,30.44-78.08l44.25-176.85C2638.88,1626.58,2638,1613,2632.83,1602Z"/><path class="cls-80" d="M2470.18,1697.63a45.22,45.22,0,0,0-11-.34c-3.25.44-5.72,1.8-5.45,3.75.36,2.6,5.16,5.26,9.85,7.14,11.11,4.44,23.68,6.81,35.79,8.61,5.82.87,12.28,1.58,15.92,0,3.1-1.35,3.13-4.19.37-6.72-1.93-1.77-5-2.61-8.17-3.64A192.76,192.76,0,0,0,2470.18,1697.63Z"/><path class="cls-80" d="M2596.49,1719.91a43.1,43.1,0,0,1,9.92,4.76c2.68,1.93,4.25,4.36,3.1,6.09-1.52,2.29-7,2.59-12.07,2.19-11.94-1-24.22-4.54-35.82-8.44-5.58-1.88-11.66-4.21-14.17-7.4-2.13-2.72-.83-5.43,2.79-6.54,2.55-.79,5.69-.14,9,.34A182.06,182.06,0,0,1,2596.49,1719.91Z"/><ellipse class="cls-84" cx="2471.16" cy="1745.55" rx="10.87" ry="6.52" transform="translate(200.37 3744.83) rotate(-76.6)"/><ellipse class="cls-84" cx="2562.35" cy="1768.12" rx="10.87" ry="6.52" transform="translate(248.48 3850.88) rotate(-76.6)"/><path d="M2507.35,1849.66a1.72,1.72,0,0,1-.39,0,59.33,59.33,0,0,1-43.41-36.35,2.08,2.08,0,0,1,3.88-1.48,55.12,55.12,0,0,0,40.31,33.76,2.07,2.07,0,0,1-.39,4.11Z"/><path d="M2467.32,1922.39a2,2,0,0,1-.47-.06,121.93,121.93,0,0,1-94.55-118.9,2.08,2.08,0,0,1,2.08-2.07h0a2.07,2.07,0,0,1,2.07,2.07,117.79,117.79,0,0,0,91.35,114.86,2.08,2.08,0,0,1-.48,4.1Z"/><path class="cls-79" d="M2373.42,1710.63a6.54,6.54,0,0,0,3.11-1.22c10.58-7.51,19.48-21,27.8-30.89,9.3-11,24.19-12,33.55-23,4.66-5.48,3.59-21.15,8.44-26.46,2.1-2.3,10.61-14.11,13.57-14.11,37.19,3.65,68.91,19.88,105,29.71,18,4.92,39.13,4.67,59,8,8.72,1.47,18.86,7.07,25.49.47a119.4,119.4,0,0,0,15.37-18.22,64.61,64.61,0,0,0,10.14-24c4-21.92-6.06-43.7-15.84-63.73-7.61-15.57-24.95-35.73-40.56-43.28-14.6-7-32.29-4.51-47.25-10.81-11.1-4.67-20.19-14-32-16.5-12.86-2.7-25.7,3.33-38,7.78a166.4,166.4,0,0,1-61.78,9.74c-11.86-.39-23.75-2.05-35.56-.92s-24,5.54-31.25,14.92c-8.82,11.36-8.64,27.12-13.71,40.58-5.49,14.6-17,26.06-24.53,39.71-8.83,15.93-1.63,36.63-4.68,54.58-1.36,8-2.7,16.42-.26,24.18,3.32,10.56,12.86,17.74,21.85,24.2,6.22,4.47,2.07,6.58,8.3,11.06C2363.79,1705.54,2368.55,1711.13,2373.42,1710.63Z"/><path class="cls-82" d="M2533,1752.89c.68,3,2.32,5.7,3.81,8.43a91.44,91.44,0,0,1,8.85,23.38,11.52,11.52,0,0,1,.26,5.64c-.72,2.47-2.93,4.24-5.19,5.64-6.6,4.07-14.37,6.14-22,8.15-1.92.51-4.19,1-5.78-.24s-1.66-3.59-1.35-5.54c1.44-9.2,6-17.65,7.67-26.81,1.36-7.52.72-15.32,2.22-22.81a14.22,14.22,0,0,1,2.82-6.69,7.14,7.14,0,0,1,6.83-2.47c2.41.58,4.33,3.13,3.38,5.35C2533.28,1747.69,2532.25,1749.71,2533,1752.89Z"/><path d="M2517.42,1808.68a2.08,2.08,0,0,1-.85-4l21.55-9.67a10.65,10.65,0,0,0,5.59-13.53l-11.21-29.24a14.61,14.61,0,0,1,1.7-13.69,2.08,2.08,0,0,1,3.4,2.4,10.48,10.48,0,0,0-1.23,9.8l11.22,29.24a14.81,14.81,0,0,1-7.77,18.81l-21.55,9.67A2,2,0,0,1,2517.42,1808.68Z"/><path class="cls-82" d="M2378.89,1690.39c4.2,1.64,8.33,3.95,10.92,7.65,3,4.31,3.51,9.91,3.06,15.15s-1.88,10.73-5.51,14.59c-3.33,3.54-8.16,5.35-13,6a32.77,32.77,0,0,1-24-6.61c-3-2.37-5.74-5.49-6.49-9.27-.79-4,.67-8,2.11-11.76,1.55-4.08-5-9.7-3.49-13.78,1-2.63,9.91-4.63,13-5.36C2362.69,1685.27,2372.26,1687.79,2378.89,1690.39Z"/><path d="M2351.16,1743.7a2.15,2.15,0,0,1-.56-.07,2.09,2.09,0,0,1-1.45-2.56,37.41,37.41,0,0,1,26.48-25.94,2.08,2.08,0,0,1,1,4,33.16,33.16,0,0,0-23.49,23A2.08,2.08,0,0,1,2351.16,1743.7Z"/><path class="cls-84" d="M2426.44,1984.83a104.23,104.23,0,0,1-49.64-12.29c-33.24-18.06-55.18-55.62-54.6-93.45a1.9,1.9,0,0,1,1.89-1.86h0a1.89,1.89,0,0,1,1.86,1.92c-.56,36.46,20.58,72.66,52.63,90.07s73.92,15.47,104.21-4.84a1.89,1.89,0,1,1,2.1,3.14C2467.8,1979,2447.1,1984.82,2426.44,1984.83Z"/><path class="cls-2" d="M1953.86,2512.9a1.79,1.79,0,0,1-.89-.23,1.87,1.87,0,0,1-.77-2.55,409.69,409.69,0,0,1,42.18-63.46,1.89,1.89,0,0,1,2.94,2.37,406.8,406.8,0,0,0-41.8,62.88A1.89,1.89,0,0,1,1953.86,2512.9Z"/><path class="cls-2" d="M2954.7,2463.81a1.81,1.81,0,0,1-.64-.12l-44.74-16.11a1.89,1.89,0,1,1,1.28-3.55l44.74,16.11a1.89,1.89,0,0,1-.64,3.67Z"/><path class="cls-2" d="M2094.91,2866.91a2.25,2.25,0,0,1-1.51-.6,2.22,2.22,0,0,1-.7-1.55l-1.25-41.53a2.2,2.2,0,0,1,2-2.27l128.37-12.59a2.21,2.21,0,0,1,.44,4.4l-126.32,12.39,1.13,37.23,126.14-4.94a2.28,2.28,0,0,1,2.3,2.12,2.21,2.21,0,0,1-2.13,2.3l-128.37,5Z"/><path class="cls-2" d="M1972.32,2896.16a2.21,2.21,0,0,1-1.91-1.09c-16.17-27.5-14.31-64.68,4.52-90.42a2.21,2.21,0,1,1,3.57,2.61c-17.82,24.36-19.58,59.55-4.28,85.56a2.22,2.22,0,0,1-1.9,3.34Z"/><path class="cls-2" d="M2873.66,2832c-31.63,0-67.79-.31-85.43-1.57a2.22,2.22,0,0,1-2-2.37,2.18,2.18,0,0,1,2.36-2c31.95,2.28,125.34,1.43,141,1.27l-1.14-42.2-142.62-2.48a2.22,2.22,0,0,1,0-4.43h0l144.73,2.52a2.2,2.2,0,0,1,2.17,2.15l1.26,46.57a2.2,2.2,0,0,1-2.18,2.27C2931.36,2831.67,2904.69,2832,2873.66,2832Z"/><path class="cls-2" d="M3023.62,2851.72a2.22,2.22,0,0,1-1.84-3.44c13.43-20.21,13.1-48.22-.8-68.11a2.21,2.21,0,1,1,3.62-2.54c14.92,21.35,15.28,51.41.87,73.1A2.22,2.22,0,0,1,3023.62,2851.72Z"/><g class="cls-85"><ellipse class="cls-79" cx="1828.51" cy="2913.03" rx="1421.85" ry="40.17"/></g></g></g></svg>